<?xml version="1.0" encoding="UTF-8"?>
<svg version="1.1" xmlns="http://www.w3.org/2000/svg" width="863" height="842">
<path d="M0 0 C3.875 1.75 3.875 1.75 5 4 C5.36643553 8.94687964 5.12356591 11.19739802 2 15 C2.33 15.99 2.66 16.98 3 18 C3.78375 17.34 4.5675 16.68 5.375 16 C8 14 8 14 10 14 C10.72170265 11.42249055 11.07638556 9.12920466 11.3125 6.4375 C12 3 12 3 13.875 1 C16 0 16 0 19 1 C19 1.66 19 2.32 19 3 C19.66 3 20.32 3 21 3 C20.95875 3.886875 20.9175 4.77375 20.875 5.6875 C21.00016492 9.00437032 21.70047453 10.99484736 23 14 C23 14.99 23 15.98 23 17 C24.258125 17.165 25.51625 17.33 26.8125 17.5 C27.87404297 17.63921875 27.87404297 17.63921875 28.95703125 17.78125 C31.15471706 18.053233 31.15471706 18.053233 34 18 C34.33 18.66 34.66 19.32 35 20 C36.65051288 21.11634152 36.65051288 21.11634152 38.5625 22.125 C39.696875 22.74375 40.83125 23.3625 42 24 C41.67 26.97 41.34 29.94 41 33 C39.68 33.33 38.36 33.66 37 34 C37.33 36.31 37.66 38.62 38 41 C38.99 41 39.98 41 41 41 C40.67 42.65 40.34 44.3 40 46 C40.99 46.33 41.98 46.66 43 47 C43 46.34 43 45.68 43 45 C44.98 45 46.96 45 49 45 C49.28875 44.360625 49.5775 43.72125 49.875 43.0625 C51 41 51 41 53 40 C55 41 55 41 56.125 43.875 C57 47 57 47 57 50 C55.25 51.75 55.25 51.75 53 53 C50.75 52.6875 50.75 52.6875 49 52 C49.33 53.32 49.66 54.64 50 56 C52.64 55.67 55.28 55.34 58 55 C58.33 53.02 58.66 51.04 59 49 C66.67770382 49.03205722 72.23687507 50.75193696 78 56 C78 56.66 78 57.32 78 58 C78.99 58 79.98 58 81 58 C81.66 58.99 82.32 59.98 83 61 C85.72518264 62.6432661 85.72518264 62.6432661 88.875 64.125 C89.92429687 64.64320313 90.97359375 65.16140625 92.0546875 65.6953125 C94.41066486 66.73894173 96.48707954 67.50227179 99 68 C99 67.01 99 66.02 99 65 C101.91517292 66.07401108 103.77810176 66.77810176 106 69 C106.68162983 75.13466851 106.68162983 75.13466851 104.34765625 78.09765625 C101.64098255 80.29091764 99.396966 81.09117384 96.0625 82.0625 C92.85807571 83.00640754 90.21158684 83.87192608 87.34765625 85.60546875 C84.12741826 87.51832227 81.68030387 87.2726151 78 87 C77.01 86.67 76.02 86.34 75 86 C75 86.66 75 87.32 75 88 C74.01 88 73.02 88 72 88 C71.67 87.01 71.34 86.02 71 85 C69.35 84.67 67.7 84.34 66 84 C66 84.66 66 85.32 66 86 C64.35 86 62.7 86 61 86 C60.67 86.99 60.34 87.98 60 89 C59.34 89 58.68 89 58 89 C58 89.66 58 90.32 58 91 C58.99 91.33 59.98 91.66 61 92 C61.433125 92.94875 61.86625 93.8975 62.3125 94.875 C64.80633246 99.49320826 68.19966848 100.39988949 73 102 C73 102.99 73 103.98 73 105 C73.93972656 105.07347656 73.93972656 105.07347656 74.8984375 105.1484375 C75.71570313 105.22320312 76.53296875 105.29796875 77.375 105.375 C78.18710937 105.44460938 78.99921875 105.51421875 79.8359375 105.5859375 C82 106 82 106 84 108 C82.5459375 108.185625 82.5459375 108.185625 81.0625 108.375 C79.5465625 108.684375 79.5465625 108.684375 78 109 C77.67 109.66 77.34 110.32 77 111 C75.20581055 111.5625 75.20581055 111.5625 72.88671875 112 C72.05076172 112.165 71.21480469 112.33 70.35351562 112.5 C69.47373047 112.665 68.59394531 112.83 67.6875 113 C65.96123298 113.32808044 64.23592304 113.66124613 62.51171875 114 C61.35869263 114.2165625 61.35869263 114.2165625 60.18237305 114.4375 C57.9536628 114.92892747 57.9536628 114.92892747 55.88989258 116.06640625 C52.91186134 117.53753291 51.15818745 116.91101561 48 116 C45.87200676 114.7724669 43.8479957 113.46221397 41.83203125 112.05859375 C39.91972345 110.74984582 39.91972345 110.74984582 37 111 C37.63979849 113.03241727 37.63979849 113.03241727 39 115 C40.65614657 115.38218767 42.32457024 115.71395102 44 116 C45.66015625 117.52734375 45.66015625 117.52734375 47 119 C46.37351562 118.98839844 45.74703125 118.97679687 45.1015625 118.96484375 C44.28429687 118.95582031 43.46703125 118.94679688 42.625 118.9375 C41.81289063 118.92589844 41.00078125 118.91429687 40.1640625 118.90234375 C37.95062858 118.85533666 37.95062858 118.85533666 36 120 C31.35874313 119.18095467 29.02131426 118.20205454 25.75 114.8125 C23.44992689 112.65813288 22.48238051 112.02363247 19.2890625 111.8671875 C17.4013709 112.07468175 15.51868261 112.33839834 13.6484375 112.66796875 C10.80211504 113.02480859 8.76564047 112.69834734 6 112 C4.34259285 111.62331656 2.67654729 111.27942455 1 111 C0.67 111.33 0.34 111.66 0 112 C-3.72224599 112.29386153 -4.77786243 112.14809171 -8 110 C-8 110.99 -8 111.98 -8 113 C-9.65 113.33 -11.3 113.66 -13 114 C-13.66 113.01 -14.32 112.02 -15 111 C-20.47519784 110.39254272 -20.47519784 110.39254272 -25.3125 112.5 C-25.869375 112.995 -26.42625 113.49 -27 114 C-27.99 114 -28.98 114 -30 114 C-30.33 113.34 -30.66 112.68 -31 112 C-32.64363134 111.27840576 -34.31050386 110.60648579 -36 110 C-36 111.65 -36 113.3 -36 115 C-36.66 115 -37.32 115 -38 115 C-38.33 115.66 -38.66 116.32 -39 117 C-41.5625 117.625 -41.5625 117.625 -44 118 C-44.06058594 118.62648438 -44.12117188 119.25296875 -44.18359375 119.8984375 C-44.26738281 120.71570313 -44.35117187 121.53296875 -44.4375 122.375 C-44.51871094 123.18710937 -44.59992188 123.99921875 -44.68359375 124.8359375 C-45 127 -45 127 -46 129 C-46.99 129 -47.98 129 -49 129 C-49 129.66 -49 130.32 -49 131 C-48.34 131 -47.68 131 -47 131 C-47.10699219 131.78503906 -47.21398437 132.57007813 -47.32421875 133.37890625 C-48.07132751 139.92614966 -48.28442163 144.21941793 -45 150 C-45.66 150.33 -46.32 150.66 -47 151 C-47.66 150.67 -48.32 150.34 -49 150 C-49.16852247 151.60397277 -49.33474886 153.2081869 -49.5 154.8125 C-49.5928125 155.70582031 -49.685625 156.59914063 -49.78125 157.51953125 C-50.04392401 160.08305099 -50.04392401 160.08305099 -50 163 C-50.94175949 165.5898386 -51.60267494 166.74366125 -53.9375 168.25 C-56 169 -56 169 -59 169 C-59.33 168.34 -59.66 167.68 -60 167 C-60.928125 167.99 -60.928125 167.99 -61.875 169 C-64 171 -64 171 -66 171 C-66.66 175.62 -67.32 180.24 -68 185 C-66.68 185 -65.36 185 -64 185 C-64 185.66 -64 186.32 -64 187 C-63.34 187 -62.68 187 -62 187 C-62.33 187.99 -62.66 188.98 -63 190 C-64.32303717 190.3721042 -65.65737935 190.70630173 -67 191 C-67.33 191.66 -67.66 192.32 -68 193 C-70.62581138 194.57548683 -71.87099787 195 -75 195 C-74.67 195.99 -74.34 196.98 -74 198 C-75 199 -75 199 -78.0625 199.0625 C-79.031875 199.041875 -80.00125 199.02125 -81 199 C-81.66 200.65 -82.32 202.3 -83 204 C-82.01 204 -81.02 204 -80 204 C-80.33 205.65 -80.66 207.3 -81 209 C-80.01 208.67 -79.02 208.34 -78 208 C-78 209.98 -78 211.96 -78 214 C-78.969375 214.309375 -79.93875 214.61875 -80.9375 214.9375 C-84.15872616 216.60613975 -84.15872616 216.60613975 -84.515625 219.1328125 C-84.62881069 220.73284658 -84.69131721 222.33739328 -84.69921875 223.94140625 C-84.79847656 224.62074219 -84.89773438 225.30007813 -85 226 C-85.99 226.66 -86.98 227.32 -88 228 C-89.21284876 231.05429073 -89.21284876 231.05429073 -90 234 C-90.763125 233.690625 -91.52625 233.38125 -92.3125 233.0625 C-97.20332535 231.11711974 -97.20332535 231.11711974 -102.0625 232.4375 C-106.44725285 234.0280476 -110.11074989 234.20077416 -114.73828125 233.91015625 C-117.36803307 234.01461962 -118.8221846 234.53370045 -121 236 C-121.33 236.99 -121.66 237.98 -122 239 C-126.09688581 242.10034602 -126.09688581 242.10034602 -129.25 241.75 C-131 241 -131 241 -132 240 C-133.11375 240.04125 -134.2275 240.0825 -135.375 240.125 C-139.54790339 239.98110678 -139.33871812 239.70170641 -142 237 C-146.84282181 235.27503299 -151.87988353 234.73742992 -157 235 C-156.690625 234.401875 -156.38125 233.80375 -156.0625 233.1875 C-154.89790296 230.91043228 -154.89790296 230.91043228 -154 228 C-154.63164063 228.0721875 -155.26328125 228.144375 -155.9140625 228.21875 C-161.39457445 228.78733337 -166.67707436 228.98488656 -172.1875 228.8125 C-178.36921151 228.73793988 -181.75977031 229.83608773 -187 233 C-187.99 233 -188.98 233 -190 233 C-189.773125 233.66 -189.54625 234.32 -189.3125 235 C-188.86388603 239.30669416 -190.31897266 242.03277547 -192 246 C-194.97 246 -197.94 246 -201 246 C-201.4640625 247.2065625 -201.4640625 247.2065625 -201.9375 248.4375 C-203 251 -203 251 -204 252 C-207.36629251 252.14636054 -209.78419562 252.07193479 -213 251 C-215.1182079 251.23769206 -215.1182079 251.23769206 -217 252 C-217.33 252.66 -217.66 253.32 -218 254 C-218.33 253.01 -218.66 252.02 -219 251 C-219.61488281 250.93941406 -220.22976563 250.87882813 -220.86328125 250.81640625 C-221.67152344 250.73261719 -222.47976563 250.64882813 -223.3125 250.5625 C-224.51326172 250.44068359 -224.51326172 250.44068359 -225.73828125 250.31640625 C-228 250 -228 250 -231 249 C-232.0725 249.309375 -233.145 249.61875 -234.25 249.9375 C-238.03077549 251.00871972 -241.09557423 251.15936432 -245 251 C-245.33 251.99 -245.66 252.98 -246 254 C-246.66 254 -247.32 254 -248 254 C-248.33 254.66 -248.66 255.32 -249 256 C-253.51144808 257.57900683 -257.54900923 258.56262907 -262.0625 256.8125 C-264 255 -264 255 -265 252 C-266.65 252 -268.3 252 -270 252 C-270.33 250.35 -270.66 248.7 -271 247 C-271.66 247 -272.32 247 -273 247 C-273.495 246.01 -273.495 246.01 -274 245 C-275.1446875 244.566875 -275.1446875 244.566875 -276.3125 244.125 C-279.35876591 242.84981892 -280.90901195 241.53905691 -283 239 C-283.75 236.75 -283.75 236.75 -284 235 C-285.11955078 234.86464844 -285.11955078 234.86464844 -286.26171875 234.7265625 C-290.92603093 233.48895613 -293.51607283 230.00702291 -296 226 C-296.07646165 223.6679198 -296.09143299 221.33154122 -296 219 C-298.3726974 216.99135641 -298.3726974 216.99135641 -301 216 C-300.67 214.35 -300.34 212.7 -300 211 C-299.34 211 -298.68 211 -298 211 C-297.67 210.01 -297.34 209.02 -297 208 C-296.67 208 -296.34 208 -296 208 C-296 209.051875 -296 210.10375 -296 211.1875 C-294.88827865 215.42593765 -294.53913771 215.70165715 -291 217.8125 C-290.278125 218.19019531 -289.55625 218.56789063 -288.8125 218.95703125 C-287 220 -287 220 -286 222 C-280.72 222 -275.44 222 -270 222 C-269.01 220.02 -269.01 220.02 -268 218 C-267.01 219.98 -267.01 219.98 -266 222 C-264.02 221.67 -262.04 221.34 -260 221 C-260 222.65 -260 224.3 -260 226 C-258.5882217 226.53394179 -257.17029756 227.05165104 -255.75 227.5625 C-254.96109375 227.85253906 -254.1721875 228.14257812 -253.359375 228.44140625 C-250.75481934 229.05804774 -249.53295371 228.6716942 -247 228 C-240.50746269 230.23880597 -240.50746269 230.23880597 -238 234 C-234.94570927 235.21284876 -234.94570927 235.21284876 -232 236 C-231.67 235.67 -231.34 235.34 -231 235 C-231.928125 234.9175 -232.85625 234.835 -233.8125 234.75 C-237 234 -237 234 -238.9375 232.375 C-240.44291219 229.00996099 -239.74764041 226.5343001 -239 223 C-238.01 222.67 -237.02 222.34 -236 222 C-236.061875 221.154375 -236.12375 220.30875 -236.1875 219.4375 C-235.96695301 215.3941385 -234.71761451 212.64134276 -233 209 C-232.67 208.01 -232.34 207.02 -232 206 C-231.34 206 -230.68 206 -230 206 C-230 205.34 -230 204.68 -230 204 C-230.99 204 -231.98 204 -233 204 C-232.835 203.484375 -232.67 202.96875 -232.5 202.4375 C-231.85872766 199.8316916 -231.85872766 199.8316916 -232.1875 196.4375 C-232.125625 195.303125 -232.06375 194.16875 -232 193 C-231.34128906 192.56171875 -230.68257813 192.1234375 -230.00390625 191.671875 C-227.68095279 190.1167792 -227.68095279 190.1167792 -227.609375 187.08203125 C-227.65578125 186.00308594 -227.7021875 184.92414063 -227.75 183.8125 C-227.78609375 182.72582031 -227.8221875 181.63914062 -227.859375 180.51953125 C-227.90578125 179.68808594 -227.9521875 178.85664063 -228 178 C-227.01 177.67 -226.02 177.34 -225 177 C-224.34 178.98 -223.68 180.96 -223 183 C-222.67 182.01 -222.34 181.02 -222 180 C-215.23691777 174.47441792 -207.62329397 173.16297917 -199.25878906 172.04077148 C-192.89572392 171.1863206 -186.96819865 169.7989797 -180.78515625 168.04296875 C-175.77078564 166.66130007 -170.71115019 165.51348207 -165.63232422 164.39477539 C-160.58597497 163.27865164 -160.58597497 163.27865164 -156 161 C-155.32558869 159.3364521 -154.6599679 157.66933058 -154 156 C-152.38025441 154.28769752 -150.7041054 152.62836738 -149 151 C-145.40663426 147.18461853 -142.1565283 143.44293536 -139.5625 138.875 C-137.29853333 135.05455624 -134.58892877 132.99998607 -130.98046875 130.48828125 C-127.78484649 128.08683731 -125.44158078 125.13917528 -123 122 C-122.44957031 121.31292969 -121.89914062 120.62585938 -121.33203125 119.91796875 C-117.57669826 115.11007212 -115.8343046 111.94172376 -115.9375 105.75 C-115.9684375 103.89375 -115.9684375 103.89375 -116 102 C-108.23214286 101.33035714 -108.23214286 101.33035714 -104.5625 104.375 C-101.01992032 108.00398406 -101.01992032 108.00398406 -100.9375 112.125 C-100.958125 113.07375 -100.97875 114.0225 -101 115 C-99.02 115 -97.04 115 -95 115 C-94.773125 115.721875 -94.54625 116.44375 -94.3125 117.1875 C-92.75168987 120.53209313 -90.6968713 122.51603959 -88 125 C-83.77858966 123.49235345 -82.19650136 120.78707131 -80 117 C-79.27617533 114.94074861 -79.27617533 114.94074861 -79 113 C-78.66666667 111.66666667 -78.33333333 110.33333333 -78 109 C-78.66 109 -79.32 109 -80 109 C-80.06058594 108.40832031 -80.12117187 107.81664062 -80.18359375 107.20703125 C-80.62012371 103.09021792 -81.08671346 99.04455467 -82 95 C-81.01 95 -80.02 95 -79 95 C-78.67 94.01 -78.34 93.02 -78 92 C-76.67696283 91.6278958 -75.34262065 91.29369827 -74 91 C-73.67 90.34 -73.34 89.68 -73 89 C-72.34 89 -71.68 89 -71 89 C-70.93941406 89.83144531 -70.87882813 90.66289062 -70.81640625 91.51953125 C-70.73261719 92.60621094 -70.64882813 93.69289063 -70.5625 94.8125 C-70.48128906 95.89144531 -70.40007812 96.97039062 -70.31640625 98.08203125 C-70.09787539 101.05989905 -70.09787539 101.05989905 -69 104 C-68.96045766 106.33299825 -68.95598268 108.66708189 -69 111 C-67.88625 110.979375 -66.7725 110.95875 -65.625 110.9375 C-62 111 -62 111 -60 112 C-60 112.66 -60 113.32 -60 114 C-59.34 114 -58.68 114 -58 114 C-58.474375 113.319375 -58.94875 112.63875 -59.4375 111.9375 C-61.7574141 107.5760615 -61.87234509 103.23399743 -62.375 98.375 C-63.01500429 94.91897681 -64.12369366 92.92042171 -66 90 C-65.6875 87.6875 -65.6875 87.6875 -65 86 C-64.236875 86.33 -63.47375 86.66 -62.6875 87 C-60.00930865 88.17436686 -60.00930865 88.17436686 -57 88 C-55.62131719 86.37064759 -54.28725907 84.70250393 -53 83 C-52.34 82.67 -51.68 82.34 -51 82 C-50.27306096 80.02111039 -49.60183749 78.02045442 -49 76 C-49.7425 75.9175 -50.485 75.835 -51.25 75.75 C-54.58468741 74.8405398 -55.94773334 73.76266666 -58 71 C-57.75333311 68.44083103 -57.25875796 67.27136412 -55.4765625 65.40234375 C-54.86554688 64.91894531 -54.25453125 64.43554688 -53.625 63.9375 C-51.28125058 62.05751376 -49.09045486 60.16099168 -47 58 C-46.67 58.99 -46.34 59.98 -46 61 C-43.36 61 -40.72 61 -38 61 C-37.75765625 60.38511719 -37.5153125 59.77023437 -37.265625 59.13671875 C-35.36762848 54.55962715 -34.10782544 51.87547781 -30 49 C-28.71991738 45.91222828 -28.71991738 45.91222828 -28 43 C-27.34 43 -26.68 43 -26 43 C-26.433125 41.9790625 -26.433125 41.9790625 -26.875 40.9375 C-27.04818749 36.86759393 -25.33613237 35.41841412 -22.73828125 32.453125 C-20.80764244 30.83919773 -19.40679913 30.56869515 -17 30 C-16.30959426 28.34302621 -15.6469365 26.6744239 -15 25 C-13.3545622 23.31237149 -11.68711423 21.6459651 -10 20 C-8.98343919 18.34338239 -7.97934924 16.67888441 -7 15 C-6.34 14.67 -5.68 14.34 -5 14 C-4.53476937 12.10466658 -4.53476937 12.10466658 -4.375 9.9375 C-4.25125 8.638125 -4.1275 7.33875 -4 6 C-3.34 6 -2.68 6 -2 6 C-1.34 4.02 -0.68 2.04 0 0 Z " fill="#29AE81" transform="translate(736,299)"/>
<path d="M0 0 C1.65 0 3.3 0 5 0 C5.268125 0.9075 5.53625 1.815 5.8125 2.75 C8.68202092 7.01328823 11.49758396 7.81730326 16.2109375 9.53125 C19.48697759 10.08184497 21.07909277 9.48700732 24 8 C24 8.99 24 9.98 24 11 C24.99 11 25.98 11 27 11 C27.66 13.64 28.32 16.28 29 19 C29.721875 18.814375 30.44375 18.62875 31.1875 18.4375 C34.12826973 17.98004693 36.14103058 18.26483643 39 19 C38.79375 19.598125 38.5875 20.19625 38.375 20.8125 C37.69328085 23.28450846 37.69328085 23.28450846 40 26 C39.25 29.625 39.25 29.625 38 33 C37.01 33.495 37.01 33.495 36 34 C35.34444881 36.52733235 35.34444881 36.52733235 35 39 C35.804375 39.61875 36.60875 40.2375 37.4375 40.875 C40 43 40 43 41 45 C43.41344255 42.90892478 43.41344255 42.90892478 44.375 39.9375 C44.58125 39.298125 44.7875 38.65875 45 38 C47.1875 36.9375 47.1875 36.9375 50 36 C50.99 35.443125 51.98 34.88625 53 34.3125 C56 33 56 33 58.6875 33 C61.76218297 34.32959264 62.56122409 36.04672313 64 39 C64.99 38.67 65.98 38.34 67 38 C67.33 38.66 67.66 39.32 68 40 C68.495 39.01 68.495 39.01 69 38 C69.66 38 70.32 38 71 38 C71 37.34 71 36.68 71 36 C71.99 35.01 71.99 35.01 73 34 C73.28875 33.05125 73.5775 32.1025 73.875 31.125 C75.0902723 27.74924361 76.46957029 26.44880295 79 24 C79.7872678 21.8618034 79.7872678 21.8618034 80 20 C84.13227662 19.60644985 87.09097498 19.92501274 90.515625 22.4140625 C92.44335783 24.47369284 93.49212308 26.66467943 94.75 29.1875 C99.32844707 38.19981159 107.52251872 44.67821473 116.4375 49.25 C124.50253267 54.75782719 128.23861138 62.92126256 132.30078125 71.48828125 C133.90107168 74.9999266 133.90107168 74.9999266 136 78 C136.45407341 80.25635245 136.81890411 82.53135679 137.125 84.8125 C137.29257813 86.01519531 137.46015625 87.21789062 137.6328125 88.45703125 C138 92 138 92 137.9921875 95.26171875 C137.85718301 98.09408209 137.85718301 98.09408209 139 101 C138.0625 103.6875 138.0625 103.6875 137 106 C136.34 106 135.68 106 135 106 C135.33 108.97 135.66 111.94 136 115 C135.34 115 134.68 115 134 115 C134.0309375 116.3303125 134.0309375 116.3303125 134.0625 117.6875 C134 121 134 121 133.1875 123.4375 C132.9207345 127.08329512 134.66959564 128.64883317 136.96875 131.3515625 C137.3090625 131.89554688 137.649375 132.43953125 138 133 C137.67 133.99 137.34 134.98 137 136 C136.71715003 139.76600109 136.72243625 143.53705635 136.6875 147.3125 C136.65849609 148.34568359 136.62949219 149.37886719 136.59960938 150.44335938 C136.54776572 156.66060983 136.87717295 160.25368304 141 165 C141.45375 165.5775 141.9075 166.155 142.375 166.75 C144.70234734 168.54026718 147.20378325 169.19220405 150 170 C150 170.66 150 171.32 150 172 C150.99 172.33 151.98 172.66 153 173 C153.12375 173.9075 153.2475 174.815 153.375 175.75 C153.92109677 178.58970323 154.57263803 180.52590591 156 183 C156.66 183 157.32 183 158 183 C158.3403125 184.485 158.3403125 184.485 158.6875 186 C159.76487704 189.87698452 161.67260579 192.83598105 163.9765625 196.10546875 C165 198 165 198 165 202 C165.66 202.33 166.32 202.66 167 203 C170.34312406 209.89899239 172.75414949 216.30767518 172 224 C169.36 224 166.72 224 164 224 C162.5393715 221.35261084 162 220.10551666 162 217 C161.34 217 160.68 217 160 217 C160 218.32 160 219.64 160 221 C156.77311135 221.0896358 154.11047855 220.80270414 151 220 C149.68 220 148.36 220 147 220 C146.54625 220.78375 146.0925 221.5675 145.625 222.375 C143.54152354 225.74061582 141.75336759 226.08251014 138 227 C137.6596875 226.25234375 137.319375 225.5046875 136.96875 224.734375 C133.59267555 217.87447905 131.13570854 214.63517867 124 212 C123.113125 211.46375 122.22625 210.9275 121.3125 210.375 C119.0094621 208.91211958 119.0094621 208.91211958 116.3125 208 C114 207 114 207 112 204 C110.948125 203.95875 109.89625 203.9175 108.8125 203.875 C104.38301681 202.8583973 104.35400404 202.424634 102.0625 198.8125 C98.30228344 193.37053521 93.79606027 191.93669945 87.68579102 190.11645508 C82.92181077 188.64127928 80.86298796 187.02792789 78 183 C77.01 182.67 76.02 182.34 75 182 C74.67 181.34 74.34 180.68 74 180 C73.38125 179.731875 72.7625 179.46375 72.125 179.1875 C70 178 70 178 68.73828125 175.55078125 C66.49845326 172.26402243 64.86056895 171.97651217 61.0625 171 C56.10558495 169.53437367 53.89883065 168.40622258 51 164 C48.38181544 162.66701026 48.38181544 162.66701026 46 162 C46 161.01 46 160.02 46 159 C45.34 159 44.68 159 44 159 C43.505 156.525 43.505 156.525 43 154 C44.65 153.01 46.3 152.02 48 151 C46.2748297 145.53696072 44.42105527 141.98360434 40.546875 137.79296875 C38.91196047 135.89795419 37.65986206 133.95790239 36.375 131.8125 C33.85891687 127.65128558 31.74899136 124.58299712 27 123 C27 121.68 27 120.36 27 119 C25.35 118.67 23.7 118.34 22 118 C22 116.35 22 114.7 22 113 C22.66 113 23.32 113 24 113 C23.51973152 110.05181069 23.51973152 110.05181069 22 107 C19.71463927 105.55911437 17.59292376 104.86430792 15 104 C15 103.34 15 102.68 15 102 C15.66 102 16.32 102 17 102 C16.67 101.01 16.34 100.02 16 99 C16.40311607 96.95502576 17.01124666 95.02601863 17.625 93.03515625 C18.05627686 90.69458079 17.67851173 89.25699389 17 87 C17 86.34 17 85.68 17 85 C16.8452253 83.62361068 16.67724852 82.248676 16.5 80.875 C16.2525 78.956875 16.2525 78.956875 16 77 C15.01 77 14.02 77 13 77 C13 76.34 13 75.68 13 75 C12.01 74.67 11.02 74.34 10 74 C8.75 70.5625 8.75 70.5625 8 67 C8.495 66.01 8.495 66.01 9 65 C9.18704404 62.30986661 9.08581391 59.70313823 9 57 C8.67 56.67 8.34 56.34 8 56 C7.78307016 53.94217944 7.62836107 51.87773787 7.5 49.8125 C7.41234375 48.54792969 7.3246875 47.28335938 7.234375 45.98046875 C7.08253171 43.4016636 6.96570397 40.82046163 6.890625 38.23828125 C6.64093136 31.82254202 6.34022922 27.03146377 2.3515625 21.84375 C-0.47965026 17.98151757 -2.04869503 15.22922036 -1.85546875 10.3515625 C-1.63503906 9.12179687 -1.41460937 7.89203125 -1.1875 6.625 C-0.97480469 5.37976563 -0.76210938 4.13453125 -0.54296875 2.8515625 C-0.36378906 1.91054688 -0.18460938 0.96953125 0 0 Z " fill="#33698E" transform="translate(43,312)"/>
<path d="M0 0 C3.875 1.75 3.875 1.75 5 4 C5.36643553 8.94687964 5.12356591 11.19739802 2 15 C2.495 16.485 2.495 16.485 3 18 C3.78375 17.34 4.5675 16.68 5.375 16 C8 14 8 14 10 14 C10.72170265 11.42249055 11.07638556 9.12920466 11.3125 6.4375 C12 3 12 3 13.875 1 C16 0 16 0 19 1 C19 1.66 19 2.32 19 3 C19.66 3 20.32 3 21 3 C20.95875 3.886875 20.9175 4.77375 20.875 5.6875 C21.00016492 9.00437032 21.70047453 10.99484736 23 14 C23 14.99 23 15.98 23 17 C24.258125 17.165 25.51625 17.33 26.8125 17.5 C27.52019531 17.5928125 28.22789062 17.685625 28.95703125 17.78125 C31.15471706 18.053233 31.15471706 18.053233 34 18 C34.495 18.99 34.495 18.99 35 20 C36.65051288 21.11634152 36.65051288 21.11634152 38.5625 22.125 C39.696875 22.74375 40.83125 23.3625 42 24 C41.67 26.97 41.34 29.94 41 33 C39.68 33.33 38.36 33.66 37 34 C37.495 37.465 37.495 37.465 38 41 C38.99 41 39.98 41 41 41 C40.67 42.65 40.34 44.3 40 46 C41.485 46.495 41.485 46.495 43 47 C43 46.34 43 45.68 43 45 C44.98 45 46.96 45 49 45 C49.28875 44.360625 49.5775 43.72125 49.875 43.0625 C51 41 51 41 53 40 C55 41 55 41 56.125 43.875 C57 47 57 47 57 50 C55.25 51.75 55.25 51.75 53 53 C50.75 52.6875 50.75 52.6875 49 52 C49.495 53.98 49.495 53.98 50 56 C52.64 55.67 55.28 55.34 58 55 C58.33 53.02 58.66 51.04 59 49 C66.67770382 49.03205722 72.23687507 50.75193696 78 56 C78 56.66 78 57.32 78 58 C78.99 58 79.98 58 81 58 C81.66 58.99 82.32 59.98 83 61 C85.72518264 62.6432661 85.72518264 62.6432661 88.875 64.125 C89.92429687 64.64320313 90.97359375 65.16140625 92.0546875 65.6953125 C94.41066486 66.73894173 96.48707954 67.50227179 99 68 C99 67.01 99 66.02 99 65 C101.91517292 66.07401108 103.77810176 66.77810176 106 69 C106.68162983 75.13466851 106.68162983 75.13466851 104.34765625 78.09765625 C101.64098255 80.29091764 99.396966 81.09117384 96.0625 82.0625 C92.85807571 83.00640754 90.21158684 83.87192608 87.34765625 85.60546875 C84.12741826 87.51832227 81.68030387 87.2726151 78 87 C77.01 86.67 76.02 86.34 75 86 C75 86.66 75 87.32 75 88 C74.01 88 73.02 88 72 88 C71.67 87.01 71.34 86.02 71 85 C69.35 84.67 67.7 84.34 66 84 C66 84.66 66 85.32 66 86 C64.35 86 62.7 86 61 86 C60.505 87.485 60.505 87.485 60 89 C59.34 89 58.68 89 58 89 C58 89.66 58 90.32 58 91 C59.485 91.495 59.485 91.495 61 92 C61.433125 92.94875 61.86625 93.8975 62.3125 94.875 C64.80633246 99.49320826 68.19966848 100.39988949 73 102 C73 102.99 73 103.98 73 105 C73.62648438 105.04898438 74.25296875 105.09796875 74.8984375 105.1484375 C75.71570313 105.22320312 76.53296875 105.29796875 77.375 105.375 C78.18710937 105.44460938 78.99921875 105.51421875 79.8359375 105.5859375 C82 106 82 106 84 108 C83.030625 108.12375 82.06125 108.2475 81.0625 108.375 C79.5465625 108.684375 79.5465625 108.684375 78 109 C77.67 109.66 77.34 110.32 77 111 C75.20581055 111.5625 75.20581055 111.5625 72.88671875 112 C72.05076172 112.165 71.21480469 112.33 70.35351562 112.5 C69.47373047 112.665 68.59394531 112.83 67.6875 113 C65.96123298 113.32808044 64.23592304 113.66124613 62.51171875 114 C61.74303467 114.144375 60.97435059 114.28875 60.18237305 114.4375 C57.9536628 114.92892747 57.9536628 114.92892747 55.88989258 116.06640625 C52.91186134 117.53753291 51.15818745 116.91101561 48 116 C45.87200676 114.7724669 43.8479957 113.46221397 41.83203125 112.05859375 C39.91972345 110.74984582 39.91972345 110.74984582 37 111 C37.63979849 113.03241727 37.63979849 113.03241727 39 115 C40.65614657 115.38218767 42.32457024 115.71395102 44 116 C45.66015625 117.52734375 45.66015625 117.52734375 47 119 C46.37351562 118.98839844 45.74703125 118.97679687 45.1015625 118.96484375 C44.28429687 118.95582031 43.46703125 118.94679688 42.625 118.9375 C41.81289063 118.92589844 41.00078125 118.91429687 40.1640625 118.90234375 C37.95062858 118.85533666 37.95062858 118.85533666 36 120 C31.35874313 119.18095467 29.02131426 118.20205454 25.75 114.8125 C23.44992689 112.65813288 22.48238051 112.02363247 19.2890625 111.8671875 C17.4013709 112.07468175 15.51868261 112.33839834 13.6484375 112.66796875 C10.80211504 113.02480859 8.76564047 112.69834734 6 112 C4.34259285 111.62331656 2.67654729 111.27942455 1 111 C0.67 111.33 0.34 111.66 0 112 C-3.72224599 112.29386153 -4.77786243 112.14809171 -8 110 C-8 110.99 -8 111.98 -8 113 C-10.475 113.495 -10.475 113.495 -13 114 C-13.66 113.01 -14.32 112.02 -15 111 C-20.47519784 110.39254272 -20.47519784 110.39254272 -25.3125 112.5 C-25.869375 112.995 -26.42625 113.49 -27 114 C-27.99 114 -28.98 114 -30 114 C-30.495 113.01 -30.495 113.01 -31 112 C-32.64363134 111.27840576 -34.31050386 110.60648579 -36 110 C-36 111.65 -36 113.3 -36 115 C-36.66 115 -37.32 115 -38 115 C-38.33 115.66 -38.66 116.32 -39 117 C-40.66666667 117.33333333 -42.33333333 117.66666667 -44 118 C-44.495 118.99 -44.495 118.99 -45 120 C-45 117.36 -45 114.72 -45 112 C-45.66 111.67 -46.32 111.34 -47 111 C-48.14249215 107.39722052 -48.75524248 103.76926583 -49 100 C-47.625 97.4375 -47.625 97.4375 -46 95 C-45.72451615 91.65261131 -45.82429453 88.35141915 -46 85 C-49.465 85.495 -49.465 85.495 -53 86 C-53 85.01 -53 84.02 -53 83 C-52.01 82.505 -52.01 82.505 -51 82 C-50.27306096 80.02111039 -49.60183749 78.02045442 -49 76 C-49.7425 75.9175 -50.485 75.835 -51.25 75.75 C-54.58468741 74.8405398 -55.94773334 73.76266666 -58 71 C-57.75333311 68.44083103 -57.25875796 67.27136412 -55.4765625 65.40234375 C-54.56003906 64.67724609 -54.56003906 64.67724609 -53.625 63.9375 C-51.28125058 62.05751376 -49.09045486 60.16099168 -47 58 C-46.67 58.99 -46.34 59.98 -46 61 C-43.36 61 -40.72 61 -38 61 C-37.75765625 60.38511719 -37.5153125 59.77023437 -37.265625 59.13671875 C-35.36762848 54.55962715 -34.10782544 51.87547781 -30 49 C-28.71991738 45.91222828 -28.71991738 45.91222828 -28 43 C-27.34 43 -26.68 43 -26 43 C-26.28875 42.319375 -26.5775 41.63875 -26.875 40.9375 C-27.04818749 36.86759393 -25.33613237 35.41841412 -22.73828125 32.453125 C-20.80764244 30.83919773 -19.40679913 30.56869515 -17 30 C-16.30959426 28.34302621 -15.6469365 26.6744239 -15 25 C-13.3545622 23.31237149 -11.68711423 21.6459651 -10 20 C-8.98343919 18.34338239 -7.97934924 16.67888441 -7 15 C-6.34 14.67 -5.68 14.34 -5 14 C-4.53476937 12.10466658 -4.53476937 12.10466658 -4.375 9.9375 C-4.189375 7.9884375 -4.189375 7.9884375 -4 6 C-3.34 6 -2.68 6 -2 6 C-1.34 4.02 -0.68 2.04 0 0 Z " fill="#219F89" transform="translate(736,299)"/>
<path d="M0 0 C2.98796524 0.33595521 4.57952838 0.5785835 6.73828125 2.7421875 C7.25777344 3.44601562 7.77726563 4.14984375 8.3125 4.875 C11.88405025 9.20132231 14.51610683 10.76170154 20 12 C22.57616923 11.16953416 22.57616923 11.16953416 25 10 C30.7771614 10.21800609 35.05623917 12.2391985 40 15 C39.505 11.04 39.505 11.04 39 7 C40.98 7 42.96 7 45 7 C45 7.66 45 8.32 45 9 C45.99 9.33 46.98 9.66 48 10 C48.12375 10.9075 48.2475 11.815 48.375 12.75 C48.92109677 15.58970323 49.57263803 17.52590591 51 20 C51.66 20 52.32 20 53 20 C53.226875 20.99 53.45375 21.98 53.6875 23 C54.76487704 26.87698452 56.67260579 29.83598105 58.9765625 33.10546875 C60 35 60 35 60 39 C60.66 39.33 61.32 39.66 62 40 C65.34312406 46.89899239 67.75414949 53.30767518 67 61 C64.36 61 61.72 61 59 61 C57.5393715 58.35261084 57 57.10551666 57 54 C56.34 54 55.68 54 55 54 C55 55.32 55 56.64 55 58 C51.77311135 58.0896358 49.11047855 57.80270414 46 57 C44.68 57 43.36 57 42 57 C41.54625 57.78375 41.0925 58.5675 40.625 59.375 C38.54152354 62.74061582 36.75336759 63.08251014 33 64 C32.6596875 63.25234375 32.319375 62.5046875 31.96875 61.734375 C28.59267555 54.87447905 26.13570854 51.63517867 19 49 C18.113125 48.46375 17.22625 47.9275 16.3125 47.375 C14.0094621 45.91211958 14.0094621 45.91211958 11.3125 45 C9 44 9 44 7 41 C5.96875 40.979375 4.9375 40.95875 3.875 40.9375 C-2.14002227 39.48225268 -4.56918085 34.91008144 -8 30 C-7.34 29.67 -6.68 29.34 -6 29 C-6.66 28.01 -7.32 27.02 -8 26 C-7.625 22.3125 -7.625 22.3125 -7 19 C-6.01 18.67 -5.02 18.34 -4 18 C-3.81824219 16.80503906 -3.81824219 16.80503906 -3.6328125 15.5859375 C-1.96836555 5.06151142 -1.96836555 5.06151142 0 0 Z " fill="#460355" transform="translate(148,475)"/>
<path d="M0 0 C4.10099161 -0.39057063 7.07790404 -0.10351218 10.46875 2.39453125 C13.84597918 5.93545267 16.42468226 10.38268939 18 15 C17.23428602 17.51591738 16.36140895 18.68660431 14.3828125 20.40234375 C12.35583338 22.744249 12.73765267 24.52873987 12.875 27.5625 C13.08487085 32.8302583 13.08487085 32.8302583 12 35 C12.66 35 13.32 35 14 35 C13.67 37.97 13.34 40.94 13 44 C14.65 44.66 16.3 45.32 18 46 C18.125 53.75 18.125 53.75 17 56 C17.78375 56.0825 18.5675 56.165 19.375 56.25 C22 57 22 57 23.3125 59.0625 C23.6528125 60.0215625 23.6528125 60.0215625 24 61 C23.01 61 22.02 61 21 61 C20.67 61.99 20.34 62.98 20 64 C16.71023192 65.09658936 15.28696233 64.79953138 12 64 C11.67 64.66 11.34 65.32 11 66 C8.69 66 6.38 66 4 66 C3.34 64.35 2.68 62.7 2 61 C0.8553125 61.2784375 0.8553125 61.2784375 -0.3125 61.5625 C-3 62 -3 62 -6 61 C-6.33 62.98 -6.66 64.96 -7 67 C-8.37562854 65.71034824 -9.70766393 64.37310707 -11 63 C-11 62.34 -11 61.68 -11 61 C-11.99 61.495 -11.99 61.495 -13 62 C-13.65555119 64.52733235 -13.65555119 64.52733235 -14 67 C-15.98 67.495 -15.98 67.495 -18 68 C-18 68.66 -18 69.32 -18 70 C-19.093125 69.67 -20.18625 69.34 -21.3125 69 C-24.84578884 67.86913351 -24.84578884 67.86913351 -28 68 C-29.6875 66.5 -29.6875 66.5 -31 65 C-30.01 64.505 -30.01 64.505 -29 64 C-28.59256816 62.0137698 -28.28181161 60.0079077 -28 58 C-25.24765478 41.59386381 -25.24765478 41.59386381 -19 37 C-16.25 36.75 -16.25 36.75 -14 37 C-14 34.69 -14 32.38 -14 30 C-15.32 29.67 -16.64 29.34 -18 29 C-18 27.02 -18 25.04 -18 23 C-17.34 23 -16.68 23 -16 23 C-15.34 21.68 -14.68 20.36 -14 19 C-13.34 19.33 -12.68 19.66 -12 20 C-11.67 19.34 -11.34 18.68 -11 18 C-10.34 18 -9.68 18 -9 18 C-9 17.34 -9 16.68 -9 16 C-8.34 15.34 -7.68 14.68 -7 14 C-6.71125 13.05125 -6.4225 12.1025 -6.125 11.125 C-4.9097277 7.74924361 -3.53042971 6.44880295 -1 4 C-0.2127322 1.8618034 -0.2127322 1.8618034 0 0 Z " fill="#472D7C" transform="translate(123,332)"/>
<path d="M0 0 C3.56841431 2.00684109 6.46011988 4.19775989 9.4375 7 C12.00243673 9.34061058 13.90318887 10.95455804 17.0625 12.4375 C26.09044303 17.23959736 30.17858681 26.67757846 34.3359375 35.5234375 C35.90311517 39.00753815 35.90311517 39.00753815 38 42 C38.45407341 44.25635245 38.81890411 46.53135679 39.125 48.8125 C39.37636719 50.61654297 39.37636719 50.61654297 39.6328125 52.45703125 C40 56 40 56 39.9921875 59.26171875 C39.85718301 62.09408209 39.85718301 62.09408209 41 65 C40.0625 67.6875 40.0625 67.6875 39 70 C37.35 70 35.7 70 34 70 C34 73.96 34 77.92 34 82 C33.34 82 32.68 82 32 82 C31.75894531 81.39671875 31.51789063 80.7934375 31.26953125 80.171875 C29.73296555 77.54316568 28.3448324 76.69701798 25.6875 75.25 C24.92824219 74.82203125 24.16898438 74.3940625 23.38671875 73.953125 C20.75125256 72.90066387 18.81159711 72.82085399 16 73 C16.4467967 67.72779892 16.98561394 64.45604896 20 60 C20 59.34 20 58.68 20 58 C18.35 58 16.7 58 15 58 C13.38050989 55.42786866 12.95591249 54.32330841 13.375 51.25 C13.684375 50.13625 13.684375 50.13625 14 49 C13.071875 49.103125 12.14375 49.20625 11.1875 49.3125 C10.135625 49.209375 9.08375 49.10625 8 49 C6.25 46.6875 6.25 46.6875 5 44 C3.36526484 40.87525373 3.36526484 40.87525373 0.875 40.3125 C0.25625 40.209375 -0.3625 40.10625 -1 40 C-1.125 32.25 -1.125 32.25 0 30 C-2.475 29.01 -2.475 29.01 -5 28 C-4.505 23.545 -4.505 23.545 -4 19 C-4.66 19 -5.32 19 -6 19 C-6.92017937 7.51479821 -6.92017937 7.51479821 -4.6640625 3.80078125 C-3 2.1875 -3 2.1875 0 0 Z " fill="#5FC866" transform="translate(141,348)"/>
<path d="M0 0 C1.65 0 3.3 0 5 0 C5.268125 0.9075 5.53625 1.815 5.8125 2.75 C8.68202092 7.01328823 11.49758396 7.81730326 16.2109375 9.53125 C19.48697759 10.08184497 21.07909277 9.48700732 24 8 C24 8.99 24 9.98 24 11 C24.99 11 25.98 11 27 11 C27.66 13.64 28.32 16.28 29 19 C29.721875 18.814375 30.44375 18.62875 31.1875 18.4375 C34.12826973 17.98004693 36.14103058 18.26483643 39 19 C38.79375 19.598125 38.5875 20.19625 38.375 20.8125 C37.69328085 23.28450846 37.69328085 23.28450846 40 26 C39.25 29.625 39.25 29.625 38 33 C37.01 33.495 37.01 33.495 36 34 C35.27840576 35.64363134 34.60648579 37.31050386 34 39 C33.34 39 32.68 39 32 39 C32.20625 39.70125 32.4125 40.4025 32.625 41.125 C33.42347642 47.24665252 29.7623249 52.7167184 27 58 C25.68 58 24.36 58 23 58 C22.7525 58.7425 22.505 59.485 22.25 60.25 C20.90852699 63.20124062 19.39094474 64.84814974 17 67 C15.515 66.505 15.515 66.505 14 66 C14.66 66 15.32 66 16 66 C15.83628906 65.31550781 15.67257813 64.63101563 15.50390625 63.92578125 C14.93552966 60.6256722 14.90369233 57.53445931 14.9375 54.1875 C14.94652344 53.02605469 14.95554687 51.86460937 14.96484375 50.66796875 C14.97644531 49.78753906 14.98804687 48.90710938 15 48 C12.36 47.67 9.72 47.34 7 47 C7.01160156 46.21496094 7.02320313 45.42992187 7.03515625 44.62109375 C7.22258863 32.68369029 7.22258863 32.68369029 2.3515625 22.08984375 C-1.27772804 16.47807948 -2.39009084 13.33419098 -1.1875 6.625 C-0.97480469 5.37976563 -0.76210938 4.13453125 -0.54296875 2.8515625 C-0.36378906 1.91054688 -0.18460938 0.96953125 0 0 Z " fill="#4A1A6B" transform="translate(43,312)"/>
<path d="M0 0 C5.08834026 0.42402836 8.71912926 1.62320632 13.203125 4.0625 C15.14681586 5.13697523 15.14681586 5.13697523 18 6 C18 6.66 18 7.32 18 8 C21.12474627 6.36526484 21.12474627 6.36526484 21.6875 3.875 C21.790625 3.25625 21.89375 2.6375 22 2 C22.66 2 23.32 2 24 2 C24 2.66 24 3.32 24 4 C26.77825456 5.28776153 26.77825456 5.28776153 30 6 C32.38305196 4.75651531 32.38305196 4.75651531 34 3 C34.495 4.485 34.495 4.485 35 6 C35.78375 6.103125 36.5675 6.20625 37.375 6.3125 C40 7 40 7 42 10 C41.94140625 12.12109375 41.94140625 12.12109375 41.5625 14.4375 C41.05379946 17.60215281 40.87596233 19.9557313 42 23 C43.32467746 23.6837045 44.65863633 24.34964186 46 25 C48.31766089 28.24472525 48.38281 31.09533798 48 35 C47.15097431 37.43910849 46.12120459 39.66415709 45 42 C43.02 42 41.04 42 39 42 C39.05220703 42.93972656 39.05220703 42.93972656 39.10546875 43.8984375 C39.13253906 44.71570313 39.15960938 45.53296875 39.1875 46.375 C39.23970703 47.59316406 39.23970703 47.59316406 39.29296875 48.8359375 C39.19628906 49.55007813 39.09960938 50.26421875 39 51 C38.01 51.66 37.02 52.32 36 53 C30.159202 51.58902071 26.00906012 48.36280072 22 44 C20.515 43.505 20.515 43.505 19 43 C19 42.01 19 41.02 19 40 C18.34 40 17.68 40 17 40 C16.505 37.525 16.505 37.525 16 35 C17.65 34.01 19.3 33.02 21 32 C19.2748297 26.53696072 17.42105527 22.98360434 13.546875 18.79296875 C11.91196047 16.89795419 10.65986206 14.95790239 9.375 12.8125 C6.85891687 8.65128558 4.74899136 5.58299712 0 4 C0 2.68 0 1.36 0 0 Z " fill="#43BC76" transform="translate(70,431)"/>
<path d="M0 0 C0.33 0.66 0.66 1.32 1 2 C1.99 2 2.98 2 4 2 C4.66 2.66 5.32 3.32 6 4 C6.66 3.67 7.32 3.34 8 3 C10.27734375 3.453125 10.27734375 3.453125 12.9375 4.25 C13.81277344 4.50265625 14.68804687 4.7553125 15.58984375 5.015625 C18.07065316 6.02885672 19.3601741 6.90015693 21 9 C21 9.66 21 10.32 21 11 C21.721875 11.268125 22.44375 11.53625 23.1875 11.8125 C25.97590126 12.98982498 28.44095724 14.39145884 31 16 C30.40477711 23.14267474 29.31071868 30.18946074 27 37 C26.01 37.495 26.01 37.495 25 38 C24.22188282 41.81984796 23.75613444 44.26840331 25 48 C21.02644164 49.57773641 18.3718366 48.35801998 14.5 46.875 C12.81390625 46.25238281 12.81390625 46.25238281 11.09375 45.6171875 C7.70372022 43.84512648 6.26136285 42.02506872 4 39 C3.01 38.67 2.02 38.34 1 38 C0.67 37.34 0.34 36.68 0 36 C-0.61875 35.731875 -1.2375 35.46375 -1.875 35.1875 C-4.6458338 33.63909288 -5.43763803 31.71715125 -7 29 C-7.99 28.34 -8.98 27.68 -10 27 C-9.67 26.67 -9.34 26.34 -9 26 C-8.76807135 24.48530552 -8.58784762 22.96245438 -8.4375 21.4375 C-8.35371094 20.61121094 -8.26992187 19.78492188 -8.18359375 18.93359375 C-8.12300781 18.29550781 -8.06242187 17.65742188 -8 17 C-6.02 17 -4.04 17 -2 17 C0.01167675 11.21642935 0.22084624 6.09781001 0 0 Z " fill="#3D538B" transform="translate(117,456)"/>
<path d="M0 0 C-0.08378906 0.68707031 -0.16757813 1.37414062 -0.25390625 2.08203125 C-0.35574219 2.98308594 -0.45757812 3.88414062 -0.5625 4.8125 C-0.66691406 5.70582031 -0.77132812 6.59914063 -0.87890625 7.51953125 C-1.15658709 10.13375572 -1.15658709 10.13375572 0 13 C-4.97377528 14.92885431 -9.16217365 12.54544772 -13.84765625 10.6796875 C-18.27313086 8.32162792 -20.63510198 5.35184431 -23 1 C-22.01 1 -21.02 1 -20 1 C-19.67 0.34 -19.34 -0.32 -19 -1 C-12.73875963 -3.08708012 -6.055584 -2.54971958 0 0 Z " fill="#474488" transform="translate(142,491)"/>
<path d="M0 0 C1.65 0 3.3 0 5 0 C7.15716267 3.86491644 8.54192276 6.55623341 8 11 C6.46875 13.23828125 6.46875 13.23828125 4.5 15.3125 C3.8503125 16.00988281 3.200625 16.70726562 2.53125 17.42578125 C2.0259375 17.94527344 1.520625 18.46476562 1 19 C-1.72948518 16.27051482 -1.72832462 14.87137415 -2 11 C-1.49570428 7.2967375 -0.78647324 3.65287571 0 0 Z " fill="#308592" transform="translate(43,312)"/>
<path d="M0 0 C2.64 0.33 5.28 0.66 8 1 C8 6.61 8 12.22 8 18 C6.02 18.66 4.04 19.32 2 20 C2.01740234 18.93458984 2.01740234 18.93458984 2.03515625 17.84765625 C2.04417969 16.92855469 2.05320313 16.00945312 2.0625 15.0625 C2.07410156 14.14597656 2.08570313 13.22945313 2.09765625 12.28515625 C2.25949049 10.03406673 2.25949049 10.03406673 1 9 C0.76807135 7.48530552 0.58784762 5.96245438 0.4375 4.4375 C0.35371094 3.61121094 0.26992188 2.78492188 0.18359375 1.93359375 C0.12300781 1.29550781 0.06242187 0.65742188 0 0 Z " fill="#2E9392" transform="translate(50,359)"/>
<path d="M0 0 C0.33 1.98 0.66 3.96 1 6 C0.01 6 -0.98 6 -2 6 C-2 6.99 -2 7.98 -2 9 C-2.66 9 -3.32 9 -4 9 C-4.33 9.66 -4.66 10.32 -5 11 C-5.33 10.34 -5.66 9.68 -6 9 C-5.67 8.34 -5.34 7.68 -5 7 C-5.99 7 -6.98 7 -8 7 C-8 6.01 -8 5.02 -8 4 C-8.99 4 -9.98 4 -11 4 C-11 3.01 -11 2.02 -11 1 C-3.57142857 -1.42857143 -3.57142857 -1.42857143 0 0 Z " fill="#5C317A" transform="translate(32,323)"/>
<path d="M0 0 C5.85272256 0.45020943 10.08220119 3.03839227 15 6 C14.01 6.495 14.01 6.495 13 7 C13 7.99 13 8.98 13 10 C9.7 10 6.4 10 3 10 C3 9.67 3 9.34 3 9 C4.98 8.67 6.96 8.34 9 8 C7.16116119 5.71271266 7.16116119 5.71271266 4.375 5.875 C3.59125 5.91625 2.8075 5.9575 2 6 C1.34 4.02 0.68 2.04 0 0 Z " fill="#E6F4F1" transform="translate(772,409)"/>
<path d="M0 0 C-0.33 2.31 -0.66 4.62 -1 7 C-2.65 7 -4.3 7 -6 7 C-6 7.66 -6 8.32 -6 9 C-6.99 9.33 -7.98 9.66 -9 10 C-9.29296875 3.9453125 -9.29296875 3.9453125 -9 2 C-5.5647952 -0.29013653 -4.014669 -0.17842973 0 0 Z " fill="#2AA48E" transform="translate(759,285)"/>
<path d="M0 0 C0 0.99 0 1.98 0 3 C0.66 3.33 1.32 3.66 2 4 C1.34 4 0.68 4 0 4 C0 4.66 0 5.32 0 6 C-1.32 6.33 -2.64 6.66 -4 7 C-4.33 6.34 -4.66 5.68 -5 5 C-4.67 4.34 -4.34 3.68 -4 3 C-4.7425 2.87625 -5.485 2.7525 -6.25 2.625 C-8.80141485 2.04513299 -10.7267573 1.26291261 -13 0 C-13 -0.33 -13 -0.66 -13 -1 C-8.05632546 -2.20577428 -4.79137588 -1.6290678 0 0 Z " fill="#7EC8BA" transform="translate(813,398)"/>
<path d="M0 0 C5.46186436 0.96385842 10.15098052 1.83212684 14 6 C13.06027344 5.98259766 13.06027344 5.98259766 12.1015625 5.96484375 C10.87566406 5.95130859 10.87566406 5.95130859 9.625 5.9375 C8.40683594 5.92009766 8.40683594 5.92009766 7.1640625 5.90234375 C4.95062858 5.85533666 4.95062858 5.85533666 3 7 C2.01 6.67 1.02 6.34 0 6 C0 4.02 0 2.04 0 0 Z " fill="#5EBAA9" transform="translate(769,412)"/>
<path d="M0 0 C2 2 2 2 2.1953125 4.1640625 C2.13020833 6.44270833 2.06510417 8.72135417 2 11 C-0.97 11 -3.94 11 -7 11 C-7.33 9.68 -7.66 8.36 -8 7 C-7.01 6.67 -6.02 6.34 -5 6 C-3.33066942 5.3400321 -1.6635479 4.67441131 0 4 C-0.33 3.01 -0.66 2.02 -1 1 C-0.67 0.67 -0.34 0.34 0 0 Z " fill="#D9EEEA" transform="translate(793,344)"/>
<path d="M0 0 C1.2077558 3.62326739 0.54311128 4.64146369 -1 8 C-2.65 8 -4.3 8 -6 8 C-6 5.36 -6 2.72 -6 0 C-3 -1 -3 -1 0 0 Z " fill="#3D9E9B" transform="translate(49,364)"/>
<path d="M0 0 C1.65 0 3.3 0 5 0 C5 2.64 5 5.28 5 8 C3.68 8.33 2.36 8.66 1 9 C-0.61949011 6.42786866 -1.04408751 5.32330841 -0.625 2.25 C-0.41875 1.5075 -0.2125 0.765 0 0 Z " fill="#83D364" transform="translate(104,457)"/>
<path d="M0 0 C0.5625 1.9375 0.5625 1.9375 1 4 C0.67 4.33 0.34 4.66 0 5 C-0.33 5.99 -0.66 6.98 -1 8 C-1.66 8 -2.32 8 -3 8 C-3.33 8.66 -3.66 9.32 -4 10 C-4 9.01 -4 8.02 -4 7 C-4.66 7 -5.32 7 -6 7 C-6.33 5.35 -6.66 3.7 -7 2 C-4.35261084 0.5393715 -3.10551666 0 0 0 Z " fill="#89D6AA" transform="translate(93,464)"/>
<path d="M0 0 C0.99 0 1.98 0 3 0 C3.33 2.97 3.66 5.94 4 9 C3.34 9 2.68 9 2 9 C2 10.65 2 12.3 2 14 C-0.4008063 10.15870991 -0.64225559 6.43603065 -1 2 C-0.67 1.34 -0.34 0.68 0 0 Z " fill="#447195" transform="translate(175,418)"/>
<path d="M0 0 C4.08072342 0.55144911 4.91330796 0.91330796 8 4 C5.03 4 2.06 4 -1 4 C-0.67 2.68 -0.34 1.36 0 0 Z " fill="#39AA96" transform="translate(775,414)"/>
<path d="M0 0 C1.65 0.33 3.3 0.66 5 1 C4.67 2.32 4.34 3.64 4 5 C2.02 5 0.04 5 -2 5 C-2 4.34 -2 3.68 -2 3 C-1.34 2.67 -0.68 2.34 0 2 C0 1.34 0 0.68 0 0 Z " fill="#3CAB97" transform="translate(763,310)"/>
<path d="M0 0 C0.66 0 1.32 0 2 0 C1.67 1.65 1.34 3.3 1 5 C-0.98 5.66 -2.96 6.32 -5 7 C-4.67 5.68 -4.34 4.36 -4 3 C-2.68 2.67 -1.36 2.34 0 2 C0 1.34 0 0.68 0 0 Z " fill="#71C2B3" transform="translate(746,285)"/>
<path d="M0 0 C0.66 0 1.32 0 2 0 C2.33 2.31 2.66 4.62 3 7 C1.68 6.67 0.36 6.34 -1 6 C-0.67 4.02 -0.34 2.04 0 0 Z " fill="#557DA0" transform="translate(209,472)"/>
<path d="M0 0 C2.31 0.33 4.62 0.66 7 1 C6.01 1.495 6.01 1.495 5 2 C5 2.66 5 3.32 5 4 C3.68 4.33 2.36 4.66 1 5 C0.67 3.35 0.34 1.7 0 0 Z " fill="#BCE2DB" transform="translate(808,400)"/>
<path d="M0 0 C1.98 0 3.96 0 6 0 C5.01 0.33 4.02 0.66 3 1 C3 1.99 3 2.98 3 4 C2.34 4 1.68 4 1 4 C0.67 4.66 0.34 5.32 0 6 C-1.24546405 3.50907189 -0.7767578 2.58919267 0 0 Z " fill="#9478A8" transform="translate(27,328)"/>
<path d="M0 0 C0.33 0.66 0.66 1.32 1 2 C2.98 2 4.96 2 7 2 C7 2.99 7 3.98 7 5 C4.07120629 4.37240135 1.63904371 3.41377341 -1 2 C-0.67 1.34 -0.34 0.68 0 0 Z " fill="#DEF1EE" transform="translate(760,313)"/>
<path d="M0 0 C1.48199902 0.44909061 2.96055236 0.90956564 4.4375 1.375 C5.26121094 1.63023437 6.08492188 1.88546875 6.93359375 2.1484375 C9 3 9 3 10 5 C6.7 4.34 3.4 3.68 0 3 C0 2.01 0 1.02 0 0 Z " fill="#5AB293" transform="translate(75,432)"/>
</svg>
