<?xml version="1.0" encoding="UTF-8"?>
<svg version="1.1" xmlns="http://www.w3.org/2000/svg" width="863" height="842">
<path d="M0 0 C284.79 0 569.58 0 863 0 C863 277.86 863 555.72 863 842 C578.21 842 293.42 842 0 842 C0 564.14 0 286.28 0 0 Z " fill="#FEFEFE" transform="translate(0,0)"/>
<path d="M0 0 C1.98170967 3.30546039 2.24423132 5.79821459 2.1875 9.625 C2.18105469 10.58664062 2.17460938 11.54828125 2.16796875 12.5390625 C2 15 2 15 1 17 C2.32 17.33 3.64 17.66 5 18 C4.505 20.475 4.505 20.475 4 23 C2.8553125 22.9071875 2.8553125 22.9071875 1.6875 22.8125 C-0.96408764 22.75481886 -0.96408764 22.75481886 -2.56640625 24.1640625 C-4.41439697 26.53069912 -4.91988372 28.65292678 -5.625 31.5625 C-6.93700787 36.87401575 -6.93700787 36.87401575 -8 39 C-8.144375 40.134375 -8.28875 41.26875 -8.4375 42.4375 C-9 46 -9 46 -11 49 C-11.20442637 51.38147046 -11.20442637 51.38147046 -11.0625 53.9375 C-10.94974338 57.18783214 -11.06479284 59.87539312 -12 63 C-11.01 63 -10.02 63 -9 63 C-8.3291288 64.6232687 -7.66342971 66.24867578 -7 67.875 C-6.62875 68.77992188 -6.2575 69.68484375 -5.875 70.6171875 C-5 73 -5 73 -5 75 C-4.01 75.33 -3.02 75.66 -2 76 C-1.80551523 78.12437212 -1.61961711 80.24953191 -1.4375 82.375 C-1.28087891 84.15003906 -1.28087891 84.15003906 -1.12109375 85.9609375 C-1 89 -1 89 -2 91 C-4.96175123 90.38722388 -6.38058783 89.74627478 -9 88 C-9.99 88.33 -10.98 88.66 -12 89 C-12.495 90.485 -12.495 90.485 -13 92 C-15.15081449 91.24317654 -17.29556819 90.46910913 -19.4375 89.6875 C-20.63246094 89.25824219 -21.82742187 88.82898438 -23.05859375 88.38671875 C-24.02925781 87.92910156 -24.99992187 87.47148437 -26 87 C-26.33 86.01 -26.66 85.02 -27 84 C-31.455 84.495 -31.455 84.495 -36 85 C-36.495 82.525 -36.495 82.525 -37 80 C-35.68 80 -34.36 80 -33 80 C-33.66 79.01 -34.32 78.02 -35 77 C-35 76.01 -35 75.02 -35 74 C-35.804375 73.71125 -36.60875 73.4225 -37.4375 73.125 C-40 72 -40 72 -41 70 C-40.01 70 -39.02 70 -38 70 C-38 67.69 -38 65.38 -38 63 C-38.99 63 -39.98 63 -41 63 C-41 64.65 -41 66.3 -41 68 C-42.1171875 66.328125 -42.1171875 66.328125 -43 64 C-42.3203125 61.421875 -42.3203125 61.421875 -41.125 58.75 C-40.73570313 57.85796875 -40.34640625 56.9659375 -39.9453125 56.046875 C-39.63335937 55.37140625 -39.32140625 54.6959375 -39 54 C-40.485 54.495 -40.485 54.495 -42 55 C-42 53 -42 53 -40.5 51.375 C-40.005 50.92125 -39.51 50.4675 -39 50 C-39.99 50 -40.98 50 -42 50 C-41.67 47.69 -41.34 45.38 -41 43 C-43.65228812 41.92474806 -46.28368454 40.90543849 -49 40 C-50.64820195 37.39757586 -51 36.13751221 -51 33 C-49.80375 33.309375 -48.6075 33.61875 -47.375 33.9375 C-45.18206526 34.32277973 -45.18206526 34.32277973 -43 34 C-39.880237 31.57869141 -37.7559969 28.5119938 -36 25 C-33.4375 24.375 -33.4375 24.375 -31 24 C-30.87625 23.05125 -30.7525 22.1025 -30.625 21.125 C-30 18 -30 18 -28 16 C-27.32059533 13.57284794 -27.32059533 13.57284794 -26.875 10.875 C-26.70742187 9.96492188 -26.53984375 9.05484375 -26.3671875 8.1171875 C-26.24601562 7.41851562 -26.12484375 6.71984375 -26 6 C-24.046875 6.8671875 -24.046875 6.8671875 -22 8 C-21.25 10.125 -21.25 10.125 -21 12 C-17.96707046 10.85916824 -17.96707046 10.85916824 -15 9 C-14.88269531 8.1853125 -14.76539063 7.370625 -14.64453125 6.53125 C-14.43183594 5.6959375 -14.21914062 4.860625 -14 4 C-11.6015625 2.63671875 -11.6015625 2.63671875 -8.625 1.6875 C-7.64789063 1.36136719 -6.67078125 1.03523438 -5.6640625 0.69921875 C-3 0 -3 0 0 0 Z " fill="#FEFEFE" transform="translate(103,346)"/>
<path d="M0 0 C2.5625 0.1875 2.5625 0.1875 4.5625 2.1875 C4.70945312 3.16783203 4.70945312 3.16783203 4.859375 4.16796875 C5.3975115 6.43342587 5.3975115 6.43342587 7.890625 7.48828125 C8.85484375 7.82214844 9.8190625 8.15601563 10.8125 8.5 C12.24335937 9.02013672 12.24335937 9.02013672 13.703125 9.55078125 C16.76351019 10.23226047 18.55648059 9.90420103 21.5625 9.1875 C23.75 10.1875 23.75 10.1875 25.5625 12.1875 C26.8125 15.875 26.8125 15.875 27.5625 19.1875 C28.366875 18.878125 28.366875 18.878125 29.1875 18.5625 C32.38410697 18.05777258 34.55576509 19.10837048 37.5625 20.1875 C37.58943575 22.31243141 37.60886628 24.43745912 37.625 26.5625 C37.63660156 27.74585938 37.64820313 28.92921875 37.66015625 30.1484375 C37.5625 33.1875 37.5625 33.1875 36.5625 35.1875 C35.5725 35.1875 34.5825 35.1875 33.5625 35.1875 C33.22824265 37.56124861 33.22824265 37.56124861 33.5625 40.1875 C35.50259522 41.89282323 35.50259522 41.89282323 37.5625 43.1875 C37.5625 43.8475 37.5625 44.5075 37.5625 45.1875 C40.74381518 43.50585184 40.74381518 43.50585184 41.4375 40.625 C41.80875 39.820625 42.18 39.01625 42.5625 38.1875 C45.1875 37.375 45.1875 37.375 47.5625 37.1875 C47.5625 36.5275 47.5625 35.8675 47.5625 35.1875 C51.68245777 33.55867948 54.28275411 32.87979987 58.5625 34.1875 C59.2225 34.5175 59.8825 34.8475 60.5625 35.1875 C60.5625 36.5075 60.5625 37.8275 60.5625 39.1875 C64.0275 38.6925 64.0275 38.6925 67.5625 38.1875 C67.9646875 37.1046875 67.9646875 37.1046875 68.375 36 C69.85452556 32.49586053 71.36518324 29.29271547 74.1875 26.6875 C76.0349141 24.67213916 76.20281493 22.84916951 76.5625 20.1875 C78.0475 20.6825 78.0475 20.6825 79.5625 21.1875 C78.56766259 24.9859701 77.54958961 27.2029295 75 30.25 C72.60950929 33.13084777 71.8844254 34.53901215 71.5625 38.1875 C70.9025 38.1875 70.2425 38.1875 69.5625 38.1875 C69.5625 38.8475 69.5625 39.5075 69.5625 40.1875 C68.9025 40.1875 68.2425 40.1875 67.5625 40.1875 C67.5625 40.8475 67.5625 41.5075 67.5625 42.1875 C65.9125 41.8575 64.2625 41.5275 62.5625 41.1875 C62.2325 44.1575 61.9025 47.1275 61.5625 50.1875 C63.0475 50.6825 63.0475 50.6825 64.5625 51.1875 C64.6875 54.0625 64.6875 54.0625 64.5625 57.1875 C62.5625 59.1875 62.5625 59.1875 59.4375 59.3125 C58.48875 59.27125 57.54 59.23 56.5625 59.1875 C54.57210998 65.56804106 52.84722447 71.9772569 51.2578125 78.46875 C50.50057291 81.42964187 49.60052828 84.31296015 48.5625 87.1875 C53.72819441 88.97967969 57.07303913 89.30779814 62.5625 88.1875 C62.5625 88.8475 62.5625 89.5075 62.5625 90.1875 C59.0138865 92.55324234 57.9860475 92.29615265 53.875 91.8125 C52.88113281 91.70164062 51.88726562 91.59078125 50.86328125 91.4765625 C50.10402344 91.38117188 49.34476563 91.28578125 48.5625 91.1875 C48.44263108 93.62752671 48.44263108 93.62752671 48.5625 96.1875 C49.036875 96.661875 49.51125 97.13625 50 97.625 C52.25243422 99.87743422 52.21981074 102.1032967 52.5625 105.1875 C53.2225 105.1875 53.8825 105.1875 54.5625 105.1875 C56.27033398 108.48931236 57.58625578 111.14224576 57.5 114.9375 C57.57300207 118.73360778 58.40928356 121.58369862 59.5625 125.1875 C61.5425 125.6825 61.5425 125.6825 63.5625 126.1875 C61.07185112 126.87457555 59.18363708 127.1875 56.5625 127.1875 C55.5725 127.8475 54.5825 128.5075 53.5625 129.1875 C51.5825 127.8675 49.6025 126.5475 47.5625 125.1875 C46.9025 126.5075 46.2425 127.8275 45.5625 129.1875 C44.2425 129.1875 42.9225 129.1875 41.5625 129.1875 C41.5625 128.5275 41.5625 127.8675 41.5625 127.1875 C40.69625 127.06375 39.83 126.94 38.9375 126.8125 C35.64528918 126.20283133 32.67519516 125.41810041 29.5625 124.1875 C29.2325 123.5275 28.9025 122.8675 28.5625 122.1875 C27.5725 122.1875 26.5825 122.1875 25.5625 122.1875 C26.2225 122.64125 26.8825 123.095 27.5625 123.5625 C28.2225 124.09875 28.8825 124.635 29.5625 125.1875 C29.5625 125.8475 29.5625 126.5075 29.5625 127.1875 C30.160625 127.414375 30.75875 127.64125 31.375 127.875 C34.16078914 129.54647348 34.91014523 131.40290213 36.5625 134.1875 C37.87458663 135.80909093 39.20879534 137.4129864 40.5625 139 C44.06218488 143.3023649 45.98391572 146.89459978 47.5625 152.1875 C48.5602758 155.18082739 49.3147025 156.13516315 51.5625 158.1875 C50.25 159.6875 50.25 159.6875 48.5625 161.1875 C47.5725 161.1875 46.5825 161.1875 45.5625 161.1875 C45.5625 161.8475 45.5625 162.5075 45.5625 163.1875 C46.8825 163.5175 48.2025 163.8475 49.5625 164.1875 C49.5625 165.1775 49.5625 166.1675 49.5625 167.1875 C47.5825 166.1975 45.6025 165.2075 43.5625 164.1875 C43.5625 163.1975 43.5625 162.2075 43.5625 161.1875 C42.2425 160.5275 40.9225 159.8675 39.5625 159.1875 C40.5525 156.2175 40.5525 156.2175 41.5625 153.1875 C42.5525 153.1875 43.5425 153.1875 44.5625 153.1875 C44.315 151.95 44.0675 150.7125 43.8125 149.4375 C43.60367188 148.39335937 43.60367188 148.39335937 43.390625 147.328125 C42.32672815 144.57805201 40.66887777 143.23622145 38.5625 141.1875 C36.73213997 138.42189021 35.04360435 135.59334978 33.34375 132.74609375 C31.60743378 130.25204304 29.99401904 128.94181966 27.5625 127.1875 C27.5625 126.5275 27.5625 125.8675 27.5625 125.1875 C26.634375 125.001875 26.634375 125.001875 25.6875 124.8125 C23.5625 124.1875 23.5625 124.1875 21.5625 122.1875 C21.02625 121.754375 20.49 121.32125 19.9375 120.875 C18.08471533 118.6011279 18.33127458 117.03928024 18.5625 114.1875 C20.0475 113.6925 20.0475 113.6925 21.5625 113.1875 C18.54362756 109.70418565 15.99340471 108.39592856 11.5625 107.1875 C12.32939189 100.66891892 12.32939189 100.66891892 13.640625 97.9609375 C14.89393153 94.19039665 14.44719361 90.8576126 13.9375 87 C13.86660156 86.27619141 13.79570313 85.55238281 13.72265625 84.80664062 C13.47327616 82.44796733 13.47327616 82.44796733 12.5625 79.1875 C10.6888571 77.81028741 10.6888571 77.81028741 8.5625 77.1875 C5.18314387 72.80347043 4.25506685 70.28507562 4.8125 64.75 C5.03968457 63.22559153 5.28196516 61.70299801 5.5625 60.1875 C5.11261719 60.68894531 4.66273437 61.19039063 4.19921875 61.70703125 C3.38904297 62.43986328 3.38904297 62.43986328 2.5625 63.1875 C0.375 62.875 0.375 62.875 -1.4375 62.1875 C-1.4375 62.8475 -1.4375 63.5075 -1.4375 64.1875 C-2.0975 64.1875 -2.7575 64.1875 -3.4375 64.1875 C-3.4375 60.2275 -3.4375 56.2675 -3.4375 52.1875 C1.5625 51.1875 1.5625 51.1875 4.5625 52.1875 C4.4903125 51.60742188 4.418125 51.02734375 4.34375 50.4296875 C3.81462826 45.97624618 3.5625 41.67595106 3.5625 37.1875 C3.2325 36.5275 2.9025 35.8675 2.5625 35.1875 C3.2225 35.1875 3.8825 35.1875 4.5625 35.1875 C1.38771112 26.81564212 1.38771112 26.81564212 -3.375 19.3125 C-6.64942056 14.50797637 -5.12517781 9.4844422 -4.1484375 4.06640625 C-3.20513485 0.24654883 -3.20513485 0.24654883 0 0 Z M43.5625 39.1875 C42.11089062 42.20529872 42.11089062 42.20529872 41.5625 45.1875 C38.9375 46.5625 38.9375 46.5625 36.5625 47.1875 C36.48 46.56875 36.3975 45.95 36.3125 45.3125 C35.76134128 43.00168662 35.76134128 43.00168662 33.515625 42.0546875 C32.87109375 41.76851563 32.2265625 41.48234375 31.5625 41.1875 C31.39814453 42.20070313 31.39814453 42.20070313 31.23046875 43.234375 C30.99263672 44.57242188 30.99263672 44.57242188 30.75 45.9375 C30.59917969 46.81921875 30.44835937 47.7009375 30.29296875 48.609375 C29.5625 51.1875 29.5625 51.1875 27.98828125 53.265625 C26.16529136 55.32408192 26.16529136 55.32408192 26.5625 59.1875 C25.86125 59.1875 25.16 59.1875 24.4375 59.1875 C20.49670101 60.55821269 19.24139964 62.97078704 16.9921875 66.375 C15.5625 68.1875 15.5625 68.1875 12.5625 69.1875 C10.55374558 68.91178861 8.55071313 68.58514263 6.5625 68.1875 C7.13834432 70.57314077 7.78477595 72.85432784 8.5625 75.1875 C12.33115248 77.46111255 12.33115248 77.46111255 16.5625 78.1875 C16.2325 80.4975 15.9025 82.8075 15.5625 85.1875 C16.5525 85.1875 17.5425 85.1875 18.5625 85.1875 C17.5725 86.1775 16.5825 87.1675 15.5625 88.1875 C15.8925 88.8475 16.2225 89.5075 16.5625 90.1875 C17.5525 89.6925 17.5525 89.6925 18.5625 89.1875 C18.25054687 89.86296875 17.93859375 90.5384375 17.6171875 91.234375 C17.22789063 92.12640625 16.83859375 93.0184375 16.4375 93.9375 C16.04304688 94.81921875 15.64859375 95.7009375 15.2421875 96.609375 C14.29915525 99.17326995 14.29915525 99.17326995 15.4453125 101.515625 C15.81398438 102.06734375 16.18265625 102.6190625 16.5625 103.1875 C16.5625 101.5375 16.5625 99.8875 16.5625 98.1875 C17.5525 98.1875 18.5425 98.1875 19.5625 98.1875 C19.5625 100.4975 19.5625 102.8075 19.5625 105.1875 C18.0775 105.6825 18.0775 105.6825 16.5625 106.1875 C19.23497634 108.53037418 19.23497634 108.53037418 22.5625 109.1875 C22.706875 109.80625 22.85125 110.425 23 111.0625 C23.49402225 113.22008322 23.49402225 113.22008322 24.5625 115.1875 C23.2425 115.1875 21.9225 115.1875 20.5625 115.1875 C20.8925 116.8375 21.2225 118.4875 21.5625 120.1875 C26.0175 119.6925 26.0175 119.6925 30.5625 119.1875 C30.8925 120.1775 31.2225 121.1675 31.5625 122.1875 C34.57387896 123.66444961 34.57387896 123.66444961 38.125 124.875 C39.32253906 125.31199219 40.52007812 125.74898438 41.75390625 126.19921875 C42.68074219 126.52535156 43.60757813 126.85148437 44.5625 127.1875 C45.0575 125.2075 45.0575 125.2075 45.5625 123.1875 C48.52425123 123.80027612 49.94308783 124.44122522 52.5625 126.1875 C53.5525 126.1875 54.5425 126.1875 55.5625 126.1875 C56.70479879 122.76060364 56.47111076 120.57647782 56.125 117 C56.02316406 115.91332031 55.92132813 114.82664062 55.81640625 113.70703125 C55.73261719 112.87558594 55.64882812 112.04414063 55.5625 111.1875 C54.5725 110.8575 53.5825 110.5275 52.5625 110.1875 C51.6484375 107.97265625 51.6484375 107.97265625 50.9375 105.25 C49.99364402 101.62630225 49.99364402 101.62630225 48.5625 98.1875 C47.5725 98.1875 46.5825 98.1875 45.5625 98.1875 C47.18786023 82.93677954 47.18786023 82.93677954 49.5625 78.1875 C49.541875 77.465625 49.52125 76.74375 49.5 76 C49.62879594 70.20418282 51.99761495 63.75055286 55.5625 59.1875 C57.5625 58.4375 57.5625 58.4375 59.5625 58.1875 C60.5525 57.8575 61.5425 57.5275 62.5625 57.1875 C62.5625 55.5375 62.5625 53.8875 62.5625 52.1875 C61.2425 52.1875 59.9225 52.1875 58.5625 52.1875 C58.72363281 51.6203125 58.88476562 51.053125 59.05078125 50.46875 C59.57267085 48.14215821 59.72961134 46.068895 59.75 43.6875 C59.76417969 42.9346875 59.77835938 42.181875 59.79296875 41.40625 C59.53667278 38.93885827 58.79095153 37.32393744 57.5625 35.1875 C52.56435728 35.1875 47.97392431 36.88710704 43.5625 39.1875 Z " fill="#E3E3E3" transform="translate(45.4375,310.8125)"/>
<path d="M0 0 C3.17833021 1.46580526 5.82343563 3.28523374 8.625 5.375 C13.4827817 8.83761523 18.37469829 11.07303495 24 13 C24.33 12.01 24.66 11.02 25 10 C27.91517292 11.07401108 29.77810176 11.77810176 32 14 C32.73336279 16.98234201 33.19565794 19.01333906 33 22 C29.74726575 27.30075211 24.74740802 28.3560899 18.98828125 30.0859375 C16.5135969 30.84289977 14.24073984 31.71890361 11.875 32.75 C7.41664006 34.46403334 2.71318959 34.67456431 -2 34 C-2.66 33.34 -3.32 32.68 -4 32 C-6.97 32.99 -9.94 33.98 -13 35 C-11.73025028 39.41522109 -11.73025028 39.41522109 -9 43 C-6.93125966 43.6425235 -6.93125966 43.6425235 -5 44 C-5 43.34 -5 42.68 -5 42 C-3.68 41.67 -2.36 41.34 -1 41 C-0.67 41.66 -0.34 42.32 0 43 C0.66 43.268125 1.32 43.53625 2 43.8125 C4 45 4 45 4.75 47.625 C4.8325 48.40875 4.915 49.1925 5 50 C5.969375 50.268125 6.93875 50.53625 7.9375 50.8125 C8.948125 51.204375 9.95875 51.59625 11 52 C11.33 52.99 11.66 53.98 12 55 C11.34 55.33 10.68 55.66 10 56 C9.01 55.67 8.02 55.34 7 55 C6.67 55.66 6.34 56.32 6 57 C2.96754231 59.06207123 -0.00643181 59.28395561 -3.58984375 59.65234375 C-7.51689425 60.21880646 -11.30826804 61.30403352 -15.14453125 62.30078125 C-18.43094827 63.10552632 -21.64153604 63.61835637 -25 64 C-25 64.66 -25 65.32 -25 66 C-42.18140383 67.0911577 -42.18140383 67.0911577 -46.65625 64.40625 C-47.85567101 63.12551231 -49.02950523 61.82015629 -50.171875 60.48828125 C-51.96666698 58.73750616 -51.96666698 58.73750616 -54.765625 58.79296875 C-57.71862786 59.08487262 -57.71862786 59.08487262 -60.484375 59.6328125 C-63.12492863 60.01823492 -64.46193637 59.67365427 -67 59 C-69.2287414 58.95645926 -71.45869105 58.96006613 -73.6875 59 C-75.7913335 59.03744309 -77.89635704 59.04694322 -80 59 C-80.33 58.67 -80.66 58.34 -81 58 C-81.33 58.66 -81.66 59.32 -82 60 C-84.5625 60.625 -84.5625 60.625 -87 61 C-87.66 60.01 -88.32 59.02 -89 58 C-94.47519784 57.39254272 -94.47519784 57.39254272 -99.3125 59.5 C-100.1478125 60.2425 -100.1478125 60.2425 -101 61 C-101.99 61 -102.98 61 -104 61 C-104 60.34 -104 59.68 -104 59 C-105.65 59 -107.3 59 -109 59 C-109.3403125 59.928125 -109.3403125 59.928125 -109.6875 60.875 C-111 63 -111 63 -113.4375 63.625 C-116.17420397 64.74766496 -116.17420397 64.74766496 -116.95703125 67.2734375 C-117.4791298 69.06863349 -117.96843614 70.87374457 -118.421875 72.6875 C-119 75 -119 75 -120 77 C-121.17031284 84.14107557 -121.62667421 89.6170534 -118 96 C-118.639375 96.165 -119.27875 96.33 -119.9375 96.5 C-122.14172055 97.77328768 -122.14172055 97.77328768 -122.48828125 99.80859375 C-122.86747321 102.89306563 -123 105.89156399 -123 109 C-123.82725739 111.82646274 -124.36557404 113.52418053 -126.75 115.3125 C-129 116 -129 116 -131.9375 115.8125 C-135.1470286 115.74468031 -135.1470286 115.74468031 -137.8125 117.9375 C-140.65655352 121.91917493 -140.88506776 125.20419089 -141 130 C-139.68 130.33 -138.36 130.66 -137 131 C-137 131.66 -137 132.32 -137 133 C-136.34 133 -135.68 133 -135 133 C-135.75 134.9375 -135.75 134.9375 -137 137 C-138.32796291 137.35412344 -139.66216607 137.68521554 -141 138 C-143.12181824 139.92289778 -144.98136757 141.97888325 -146.875 144.125 C-149.42355574 146.37372566 -151.74832102 147.11317846 -155 148 C-153.84826645 150.46800047 -152.95216435 152.04783565 -151 154 C-150.875 157.125 -150.875 157.125 -151 160 C-151.99 160.33 -152.98 160.66 -154 161 C-154 161.66 -154 162.32 -154 163 C-155.32 163 -156.64 163 -158 163 C-158 165.97 -158 168.94 -158 172 C-159.98 172.99 -159.98 172.99 -162 174 C-162.81171228 176.55519921 -162.81171228 176.55519921 -163 179 C-164.6875 179.625 -164.6875 179.625 -167 180 C-168.175625 179.443125 -168.175625 179.443125 -169.375 178.875 C-170.24125 178.58625 -171.1075 178.2975 -172 178 C-172.928125 178.474375 -173.85625 178.94875 -174.8125 179.4375 C-178.36009223 181.1765158 -180.03474214 180.8857287 -183.83203125 180.1953125 C-187.69239223 179.84753223 -191.30427654 180.96485523 -195 182 C-195.11730469 182.62390625 -195.23460937 183.2478125 -195.35546875 183.890625 C-196 186 -196 186 -198.3125 187.75 C-201 189 -201 189 -205 189 C-205.66 188.01 -206.32 187.02 -207 186 C-207.928125 186.20625 -208.85625 186.4125 -209.8125 186.625 C-213 187 -213 187 -216 185 C-216 184.34 -216 183.68 -216 183 C-217.98567708 183.06510417 -219.97135417 183.13020833 -221.95703125 183.1953125 C-224 183 -224 183 -227 181 C-229.15274948 181.30840599 -229.15274948 181.30840599 -231 182 C-231 178 -231 178 -229 175 C-232.93573163 174.8533942 -232.93573163 174.8533942 -236.78515625 175.51171875 C-239.79582772 176.17544703 -242.60955655 175.97658229 -245.6875 175.875 C-251.84792964 175.81062769 -256.33194613 176.6545984 -262 179 C-261.9175 179.639375 -261.835 180.27875 -261.75 180.9375 C-262.1168665 185.43161466 -263.26919097 189.35892129 -266 193 C-268.13414875 193.6997209 -269.88975227 193.74959542 -272.12890625 193.7578125 C-273.05509766 193.87769531 -273.05509766 193.87769531 -274 194 C-274.639375 194.86625 -275.27875 195.7325 -275.9375 196.625 C-276.618125 197.40875 -277.29875 198.1925 -278 199 C-280.34737064 199 -282.49660163 198.61436951 -284.8046875 198.19921875 C-287.92993422 197.91561095 -289.61553793 199.07704672 -292 201 C-292.37125 200.525625 -292.7425 200.05125 -293.125 199.5625 C-295.64985446 197.45845462 -297.77442751 197.39496806 -301 197 C-301.70125 196.79375 -302.4025 196.5875 -303.125 196.375 C-304.99889917 195.85843452 -304.99889917 195.85843452 -306.8203125 196.47265625 C-309.20975087 197.05074618 -311.29587159 197.09859012 -313.75 197.0625 C-314.54921875 197.05347656 -315.3484375 197.04445313 -316.171875 197.03515625 C-317.07679688 197.01775391 -317.07679688 197.01775391 -318 197 C-318.37125 197.928125 -318.37125 197.928125 -318.75 198.875 C-320.60017948 202.02030512 -322.83082219 202.60469659 -326.18359375 203.73828125 C-332.30196759 205.29703507 -332.30196759 205.29703507 -335.9375 203.75 C-338 202 -338 202 -340 200 C-340.78375 199.95875 -341.5675 199.9175 -342.375 199.875 C-345 199 -345 199 -346.0390625 197.23046875 C-346.68397451 195.77548433 -347.3271823 194.31974342 -347.96875 192.86328125 C-349.43692142 190.21056243 -351.16898316 189.84930505 -354 189 C-356.71588535 186.66132095 -357.85660573 185.43018282 -359 182 C-360.051875 181.6596875 -360.051875 181.6596875 -361.125 181.3125 C-365.52951698 179.30174225 -368.50024922 176.13163556 -371 172 C-371.29569009 169.23503824 -370.84613262 167.70762438 -370 165 C-371.32 165 -372.64 165 -374 165 C-376.125 159.375 -376.125 159.375 -375 156 C-374.01 156 -373.02 156 -372 156 C-372 154.68 -372 153.36 -372 152 C-371.34 152 -370.68 152 -370 152 C-370.020625 153.216875 -370.04125 154.43375 -370.0625 155.6875 C-369.90850601 157.92349776 -369.90850601 157.92349776 -369 160 C-366.7778108 161.71889107 -364.58719705 162.83554058 -362.03125 163.9921875 C-360 165 -360 165 -359 167 C-355.97065509 167.65772428 -355.97065509 167.65772428 -353 168 C-352.67 167.34 -352.34 166.68 -352 166 C-351.67 166.33 -351.34 166.66 -351 167 C-347.48254713 166.74751373 -347.48254713 166.74751373 -344 166 C-343.67 165.34 -343.34 164.68 -343 164 C-342.34 164 -341.68 164 -341 164 C-340.67 165.32 -340.34 166.64 -340 168 C-339.34 168 -338.68 168 -338 168 C-338 167.34 -338 166.68 -338 166 C-336.35 166.33 -334.7 166.66 -333 167 C-333.33 168.32 -333.66 169.64 -334 171 C-333.33613281 171.13277344 -332.67226563 171.26554688 -331.98828125 171.40234375 C-329.32552083 171.93489583 -326.66276042 172.46744792 -324 173 C-323.12730469 173.16628906 -322.25460937 173.33257813 -321.35546875 173.50390625 C-319 174 -319 174 -316 175 C-315.01 173.02 -314.02 171.04 -313 169 C-312.34 169 -311.68 169 -311 169 C-310.896875 167.88625 -310.79375 166.7725 -310.6875 165.625 C-310.16897128 161.28328938 -308.93597512 157.32667959 -307.5234375 153.19921875 C-306.75881945 150.84471689 -306.75881945 150.84471689 -308 148 C-308.01953125 145.84375 -308.01953125 145.84375 -307.8125 143.5 C-307.75707031 142.7265625 -307.70164062 141.953125 -307.64453125 141.15625 C-307 139 -307 139 -304.96484375 137.60546875 C-302.67615468 136.10869074 -302.67615468 136.10869074 -302.609375 133.08203125 C-302.65578125 132.00308594 -302.7021875 130.92414063 -302.75 129.8125 C-302.78609375 128.72582031 -302.8221875 127.63914062 -302.859375 126.51953125 C-302.90578125 125.68808594 -302.9521875 124.85664063 -303 124 C-301.68 123.34 -300.36 122.68 -299 122 C-298.01 122.99 -297.02 123.98 -296 125 C-294.9378125 124.22785156 -293.875625 123.45570313 -292.78125 122.66015625 C-287.35312054 119.27473017 -281.73597444 118.45382672 -275.5 117.4375 C-273.16996455 117.02556183 -270.84053094 116.61020461 -268.51171875 116.19140625 C-266.83021729 115.89194092 -266.83021729 115.89194092 -265.11474609 115.58642578 C-261.13532174 114.83720354 -257.22624896 113.90890534 -253.3125 112.875 C-245.92336746 110.93918892 -238.50255677 109.4228987 -231 108 C-231.33 108.66 -231.66 109.32 -232 110 C-234.79584261 110.86964818 -237.54993087 111.61983968 -240.390625 112.3125 C-241.24622009 112.52688721 -242.10181519 112.74127441 -242.9833374 112.9621582 C-244.80496454 113.41656214 -246.62761539 113.86687822 -248.45117188 114.31347656 C-251.19934034 114.98757371 -253.94352674 115.67623759 -256.6875 116.3671875 C-265.22286176 118.4936143 -273.64111771 120.47586094 -282.38525391 121.5246582 C-286.80734962 122.328563 -290.59633986 124.06082145 -294 127 C-295.52189655 129.35869498 -296.19744668 131.27131872 -297 134 C-297.66 134 -298.32 134 -299 134 C-299.495 129.545 -299.495 129.545 -300 125 C-300.02578125 125.83144531 -300.0515625 126.66289062 -300.078125 127.51953125 C-300.16320312 129.14955078 -300.16320312 129.14955078 -300.25 130.8125 C-300.29640625 131.89144531 -300.3428125 132.97039062 -300.390625 134.08203125 C-301.13213134 137.63270583 -302.13530148 137.99925818 -305 140 C-305.48057715 142.0488648 -305.48057715 142.0488648 -305.25 144.1875 C-305.1675 145.445625 -305.085 146.70375 -305 148 C-304.01 148.33 -303.02 148.66 -302 149 C-302 149.66 -302 150.32 -302 151 C-302.66 151 -303.32 151 -304 151 C-305.95088223 156.61854082 -307.63172347 162.21113776 -309 168 C-308.34 168 -307.68 168 -307 168 C-307 168.66 -307 169.32 -307 170 C-308.65 170.33 -310.3 170.66 -312 171 C-312.08226668 174.04386724 -311.97608217 176.07175348 -311 179 C-308.03 179.33 -305.06 179.66 -302 180 C-302 180.66 -302 181.32 -302 182 C-308.24159797 183.34622701 -308.24159797 183.34622701 -311.875 181.6875 C-314 180 -314 180 -315 178 C-316.88263881 177.09656316 -316.88263881 177.09656316 -319.0625 176.375 C-319.79597656 176.11460937 -320.52945313 175.85421875 -321.28515625 175.5859375 C-321.85105469 175.39257812 -322.41695313 175.19921875 -323 175 C-323.33 176.32 -323.66 177.64 -324 179 C-324.99 178.67 -325.98 178.34 -327 178 C-326.67 177.01 -326.34 176.02 -326 175 C-327.98567708 174.8046875 -329.97135417 174.609375 -331.95703125 174.4140625 C-334 174 -334 174 -337 172 C-337 171.01 -337 170.02 -337 169 C-337.5775 169.165 -338.155 169.33 -338.75 169.5 C-341 170 -341 170 -345 170 C-346.73056641 170.08701172 -346.73056641 170.08701172 -348.49609375 170.17578125 C-349.79675781 170.22089844 -351.09742188 170.26601563 -352.4375 170.3125 C-354.38462891 170.39951172 -354.38462891 170.39951172 -356.37109375 170.48828125 C-360.88112166 169.88144219 -362.11262917 168.40205369 -365 165 C-366.65261839 163.97695052 -368.31791365 162.97383946 -370 162 C-371.8125 160.3125 -371.8125 160.3125 -373 159 C-373 159.99 -373 160.98 -373 162 C-372.175 162.4125 -371.35 162.825 -370.5 163.25 C-369.675 163.8275 -368.85 164.405 -368 165 C-368.020625 166.11375 -368.04125 167.2275 -368.0625 168.375 C-368.39343641 171.87843574 -368.39343641 171.87843574 -366.68359375 173.49609375 C-365.14763671 174.69706248 -363.5754054 175.85126689 -362 177 C-362 177.66 -362 178.32 -362 179 C-360.35 179.33 -358.7 179.66 -357 180 C-356.87625 181.175625 -356.87625 181.175625 -356.75 182.375 C-356.27193661 185.14749104 -356.27193661 185.14749104 -353.9375 186.3125 C-352.9784375 186.6528125 -352.9784375 186.6528125 -352 187 C-352 187.66 -352 188.32 -352 189 C-351.2575 189.04125 -350.515 189.0825 -349.75 189.125 C-345.9166559 190.3447004 -345.15568188 192.69911212 -343 196 C-340.52869082 197.15521502 -340.52869082 197.15521502 -338 198 C-336.66666667 199.33333333 -335.33333333 200.66666667 -334 202 C-331.8618034 202.7872678 -331.8618034 202.7872678 -330 203 C-330 202.34 -330 201.68 -330 201 C-329.278125 200.87625 -328.55625 200.7525 -327.8125 200.625 C-325.01799416 200.0039987 -322.58740955 199.22183229 -320 198 C-319.67 197.34 -319.34 196.68 -319 196 C-316.24722552 195.46316424 -313.59174381 195.06419548 -310.8125 194.75 C-310.05646484 194.646875 -309.30042969 194.54375 -308.52148438 194.4375 C-303.74546827 193.87415378 -300.55852164 194.23200608 -296 196 C-294.68 196 -293.36 196 -292 196 C-292 196.66 -292 197.32 -292 198 C-291.01 197.34 -290.02 196.68 -289 196 C-285.15110517 195.79006028 -281.68766192 195.81994818 -278 197 C-278 196.01 -278 195.02 -278 194 C-274.33513904 191.08966924 -271.60625394 190.67863345 -267 191 C-266.86722656 190.31292969 -266.73445312 189.62585938 -266.59765625 188.91796875 C-266.42105469 188.01691406 -266.24445313 187.11585938 -266.0625 186.1875 C-265.88847656 185.29417969 -265.71445312 184.40085937 -265.53515625 183.48046875 C-264.41280967 178.27835138 -264.41280967 178.27835138 -261.9597168 176.62426758 C-254.3874405 172.99744119 -248.13390367 172.37063343 -239.8125 172.6875 C-238.09836914 172.72133789 -238.09836914 172.72133789 -236.34960938 172.75585938 C-233.5649747 172.81411533 -230.78323081 172.89584916 -228 173 C-226.875 176.75 -226.875 176.75 -228 179 C-227.25234375 179.10957031 -226.5046875 179.21914063 -225.734375 179.33203125 C-224.74953125 179.49058594 -223.7646875 179.64914062 -222.75 179.8125 C-221.28820312 180.03873047 -221.28820312 180.03873047 -219.796875 180.26953125 C-216.84653062 181.04008209 -215.38071743 182.16944836 -213 184 C-210.6670386 184.04166002 -208.3329614 184.04166002 -206 184 C-204.66666667 184.66666667 -203.33333333 185.33333333 -202 186 C-199.31006947 185.69621948 -199.31006947 185.69621948 -197 185 C-196.938125 184.401875 -196.87625 183.80375 -196.8125 183.1875 C-195.64067958 180.03259886 -193.98807221 179.44437286 -191 178 C-188.09765625 177.8125 -188.09765625 177.8125 -185.0625 178 C-180.05572361 178.15933438 -177.44839653 177.33011247 -173 175 C-170.03613422 175.68396903 -167.70294568 176.64852716 -165 178 C-164.8453125 176.824375 -164.8453125 176.824375 -164.6875 175.625 C-164 173 -164 173 -161 171 C-160.20201782 168.58392583 -160.20201782 168.58392583 -159.8125 165.875 C-159.65394531 164.96492187 -159.49539063 164.05484375 -159.33203125 163.1171875 C-159.22246094 162.41851563 -159.11289062 161.71984375 -159 161 C-157.68 160.67 -156.36 160.34 -155 160 C-154.90566002 154.62685384 -154.90566002 154.62685384 -157.5625 150.25 C-158.036875 149.8375 -158.51125 149.425 -159 149 C-158.67 148.34 -158.34 147.68 -158 147 C-157.34 147 -156.68 147 -156 147 C-155.67 146.01 -155.34 145.02 -155 144 C-153.35 144 -151.7 144 -150 144 C-149.9690625 143.13375 -149.9690625 143.13375 -149.9375 142.25 C-148.46251507 138.71003617 -145.27870778 137.61787764 -142 136 C-140.7934375 135.38125 -140.7934375 135.38125 -139.5625 134.75 C-139.046875 134.5025 -138.53125 134.255 -138 134 C-139.98 133.01 -141.96 132.02 -144 131 C-143.65229902 121.0731371 -143.65229902 121.0731371 -141.0625 116.8125 C-139 115 -139 115 -137 115 C-136.67 114.01 -136.34 113.02 -136 112 C-134.63875 112.2784375 -134.63875 112.2784375 -133.25 112.5625 C-130.24339146 112.96723576 -128.8119538 112.82524731 -126 112 C-126.02320313 111.43152344 -126.04640625 110.86304688 -126.0703125 110.27734375 C-126.19180556 105.07917628 -125.79754241 100.89330989 -124 96 C-123.34 95.34 -122.68 94.68 -122 94 C-122.24351048 92.00228639 -122.24351048 92.00228639 -122.9375 89.8125 C-124.01321702 85.55074214 -123.85262494 82.34838722 -123 78 C-123 76.68 -123 75.36 -123 74 C-122.34 73.67 -121.68 73.34 -121 73 C-119.85757257 68.31604754 -119.91747505 63.78644729 -120 59 C-120.66 58.67 -121.32 58.34 -122 58 C-122.73828125 55.234375 -122.73828125 55.234375 -123.3125 51.75 C-123.51488281 50.61046875 -123.71726562 49.4709375 -123.92578125 48.296875 C-124.0121345 44.4609729 -123.07442556 43.13248684 -121 40 C-120.64300129 37.79424004 -120.64300129 37.79424004 -120.8125 35.6875 C-120.874375 34.470625 -120.93625 33.25375 -121 32 C-122.299375 32.12375 -123.59875 32.2475 -124.9375 32.375 C-125.66839844 32.44460938 -126.39929688 32.51421875 -127.15234375 32.5859375 C-127.76207031 32.72257812 -128.37179687 32.85921875 -129 33 C-129.33 33.66 -129.66 34.32 -130 35 C-135.75 35.125 -135.75 35.125 -138 34 C-137.566875 34.7734375 -137.566875 34.7734375 -137.125 35.5625 C-134.11558533 42.08289845 -133.74476236 47.95260511 -134 55 C-133.34 55 -132.68 55 -132 55 C-131.67 56.65 -131.34 58.3 -131 60 C-132.97993541 59.69240822 -134.95893599 59.3787932 -136.9375 59.0625 C-138.03964844 58.88847656 -139.14179687 58.71445312 -140.27734375 58.53515625 C-143 58 -143 58 -144 57 C-144.29430772 55.66369883 -144.53661833 54.31580778 -144.75390625 52.96484375 C-144.88603516 52.15595703 -145.01816406 51.34707031 -145.15429688 50.51367188 C-145.28900391 49.66353516 -145.42371094 48.81339844 -145.5625 47.9375 C-145.77036133 46.65649414 -145.77036133 46.65649414 -145.98242188 45.34960938 C-146.32523005 43.23365549 -146.66307616 41.11689882 -147 39 C-149.47266765 39.34444881 -149.47266765 39.34444881 -152 40 C-152.33 40.66 -152.66 41.32 -153 42 C-153.66 42 -154.32 42 -155 42 C-154.67 42.66 -154.34 43.32 -154 44 C-153.73044167 46.33189345 -153.55492623 48.66321507 -153.37890625 51.00390625 C-153.25386719 51.66261719 -153.12882813 52.32132812 -153 53 C-152.34 53.33 -151.68 53.66 -151 54 C-151.33 55.32 -151.66 56.64 -152 58 C-155.06273018 54.6100192 -155.60550995 51.72684657 -156.1875 47.25 C-156.34605469 46.07953125 -156.50460937 44.9090625 -156.66796875 43.703125 C-156.77753906 42.81109375 -156.88710938 41.9190625 -157 41 C-156.01 41 -155.02 41 -154 41 C-153.67 40.01 -153.34 39.02 -153 38 C-151.35 38 -149.7 38 -148 38 C-147.67 36.68 -147.34 35.36 -147 34 C-146.01 34.33 -145.02 34.66 -144 35 C-143.93941406 35.84304688 -143.87882813 36.68609375 -143.81640625 37.5546875 C-143.73261719 38.65039062 -143.64882813 39.74609375 -143.5625 40.875 C-143.48128906 41.96554687 -143.40007812 43.05609375 -143.31640625 44.1796875 C-143.16998297 46.94728971 -143.16998297 46.94728971 -142 49 C-141.95977609 51.3329866 -141.95679753 53.66706666 -142 56 C-139.69 56 -137.38 56 -135 56 C-135.33 55.67 -135.66 55.34 -136 55 C-136.50221037 51.51192071 -136.90186871 48.0164865 -137.3046875 44.515625 C-137.99854589 41.00735223 -139.14308929 38.9931507 -141 36 C-140.1875 33.1875 -140.1875 33.1875 -139 31 C-138.236875 31.309375 -137.47375 31.61875 -136.6875 31.9375 C-134.81210323 32.67893593 -132.91315348 33.36228217 -131 34 C-130.62875 33.1028125 -130.62875 33.1028125 -130.25 32.1875 C-129 30 -129 30 -126.9375 28.5 C-124.6834192 26.75490519 -124.38148486 25.76576527 -124 23 C-127.3171411 21.5783681 -130.44219804 20.60990891 -134 20 C-132.79444959 13.85169289 -131.08441876 11.64751781 -126 8 C-125.01 8.495 -125.01 8.495 -124 9 C-124.42152344 9.48210937 -124.84304688 9.96421875 -125.27734375 10.4609375 C-125.82519531 11.09257812 -126.37304688 11.72421875 -126.9375 12.375 C-127.48277344 13.00148438 -128.02804687 13.62796875 -128.58984375 14.2734375 C-130.06958624 15.95632334 -130.06958624 15.95632334 -131 18 C-130.01 18 -129.02 18 -128 18 C-128 18.66 -128 19.32 -128 20 C-126.02 20.66 -124.04 21.32 -122 22 C-122.875 27.75 -122.875 27.75 -124 30 C-122.68 30.33 -121.36 30.66 -120 31 C-119.09712442 33.98143808 -118.32772037 36.89722811 -118 40 C-118.474375 40.78375 -118.94875 41.5675 -119.4375 42.375 C-121.95148952 46.59850239 -121.04772424 51.30493499 -120 56 C-119.34 56.33 -118.68 56.66 -118 57 C-118 59.31 -118 61.62 -118 64 C-117.566875 63.525625 -117.13375 63.05125 -116.6875 62.5625 C-115 61 -115 61 -112 60 C-111.67 58.35 -111.34 56.7 -111 55 C-108.56022281 55.56302551 -106.25050967 56.25482671 -103.875 57.0625 C-101.18708882 58.1033402 -101.18708882 58.1033402 -99 58 C-98.67 57.01 -98.34 56.02 -98 55 C-89.77142857 54.52527473 -89.77142857 54.52527473 -86.5625 56.5 C-86.046875 56.995 -85.53125 57.49 -85 58 C-84.34 58 -83.68 58 -83 58 C-82.67 57.01 -82.34 56.02 -82 55 C-80.3603125 55.2475 -80.3603125 55.2475 -78.6875 55.5 C-74.90432202 56.01297329 -71.40467034 55.97679032 -67.61328125 55.7890625 C-65.84639017 55.73322396 -64.07946092 55.67858293 -62.3125 55.625 C-61.43916016 55.57472656 -60.56582031 55.52445312 -59.66601562 55.47265625 C-53.51280653 55.33479496 -50.15719959 56.61075701 -45.38745117 60.50537109 C-44 62 -44 62 -44 64 C-43.34 64 -42.68 64 -42 64 C-41.690625 62.72125 -41.38125 61.4425 -41.0625 60.125 C-40.52394756 57.89898325 -40.0263 56.05260001 -39 54 C-36.9375 53.375 -36.9375 53.375 -35 53 C-34.67 53.99 -34.34 54.98 -34 56 C-32.01751285 56.71706982 -30.01584651 57.38290413 -28 58 C-27.34 58.66 -26.68 59.32 -26 60 C-21.41076155 61.42047857 -18.77425429 60.6805067 -14.43359375 58.8359375 C-9.47298177 57.13197127 -4.18426857 56.67174212 1 56 C1 55.01 1 54.02 1 53 C-0.32 52.34 -1.64 51.68 -3 51 C-3 50.34 -3 49.68 -3 49 C-3.886875 48.79375 -4.77375 48.5875 -5.6875 48.375 C-9.98970065 46.58918086 -11.36096625 44.80331334 -14 41 C-14 40.01 -14 39.02 -14 38 C-14.66 38 -15.32 38 -16 38 C-16.33 37.01 -16.66 36.02 -17 35 C-15.25 33 -15.25 33 -13 31 C-11.68 31 -10.36 31 -9 31 C-9 30.34 -9 29.68 -9 29 C-3.46153846 28.63076923 -3.46153846 28.63076923 -1.125 30.5 C-0.75375 30.995 -0.3825 31.49 0 32 C0.99 31.67 1.98 31.34 3 31 C4.06992187 31.02707031 5.13984375 31.05414063 6.2421875 31.08203125 C10.35529594 30.99224406 13.28147105 30.11932013 17.125 28.6875 C18.30320312 28.25824219 19.48140625 27.82898438 20.6953125 27.38671875 C23.69243078 26.12906273 26.33723715 24.86001817 29 23 C30.22232049 19.59496435 29.94104399 17.40947475 29 14 C28.12601563 14.12181641 28.12601563 14.12181641 27.234375 14.24609375 C17.32639816 15.00944417 10.12490759 9.76330692 2.75 3.625 C1.8425 2.75875 0.935 1.8925 0 1 C0 0.67 0 0.34 0 0 Z " fill="#E4E4E4" transform="translate(810,353)"/>
<path d="M0 0 C1.43861294 0.08746284 2.87597508 0.19565348 4.3125 0.3125 C5.11300781 0.37050781 5.91351563 0.42851562 6.73828125 0.48828125 C9.48095522 1.10881716 10.28639076 1.79470174 12 4 C12.95407634 5.63402371 13.84735778 7.30457787 14.6875 9 C15.12449219 9.86625 15.56148437 10.7325 16.01171875 11.625 C17 14 17 14 17 17 C16.17113281 17.59554688 15.34226563 18.19109375 14.48828125 18.8046875 C11.68962152 20.76861199 11.68962152 20.76861199 11.73046875 23.8828125 C11.88128906 24.95273437 12.03210938 26.02265625 12.1875 27.125 C12.86797109 32.80629163 13.11612319 38.28415857 13 44 C14.32 44.33 15.64 44.66 17 45 C17.495 49.95 17.495 49.95 18 55 C19.65 55.66 21.3 56.32 23 57 C23 57.66 23 58.32 23 59 C22.34 59 21.68 59 21 59 C21 59.99 21 60.98 21 62 C17.30458414 62.95024979 14.69541586 62.95024979 11 62 C10.67 62.99 10.34 63.98 10 65 C5.48279689 65.36625971 5.48279689 65.36625971 3.1875 63.625 C2 62 2 62 2 60 C-0.97 60 -3.94 60 -7 60 C-7.33 61.32 -7.66 62.64 -8 64 C-8.66 62.68 -9.32 61.36 -10 60 C-11.32 60 -12.64 60 -14 60 C-13.9175 60.763125 -13.835 61.52625 -13.75 62.3125 C-14 65 -14 65 -15.4375 66.875 C-19.31229681 68.57613031 -22.94386925 67.99349059 -27 67 C-27.99 66.34 -28.98 65.68 -30 65 C-29.731875 64.2575 -29.46375 63.515 -29.1875 62.75 C-27.84443762 58.50875038 -26.78867639 54.23171192 -25.72265625 49.9140625 C-23.42049093 40.63073639 -23.42049093 40.63073639 -21 37 C-17.375 35.8125 -17.375 35.8125 -14 35 C-14 33.02 -14 31.04 -14 29 C-14.66 28.67 -15.32 28.34 -16 28 C-16.86159454 24.76902047 -17.30597523 22.77513726 -16.0625 19.625 C-15.711875 19.08875 -15.36125 18.5525 -15 18 C-13.35 18.66 -11.7 19.32 -10 20 C-10 19.34 -10 18.68 -10 18 C-9.34 18 -8.68 18 -8 18 C-8 17.34 -8 16.68 -8 16 C-7.34 15.67 -6.68 15.34 -6 15 C-5.896875 14.0925 -5.79375 13.185 -5.6875 12.25 C-4.82302433 8.16338775 -2.93586363 6.86058508 0 4 C0 2.68 0 1.36 0 0 Z " fill="#FEFEFE" transform="translate(123,333)"/>
<path d="M0 0 C2.86697492 1.28519565 4.97607712 2.57129254 7 5 C7 5.66 7 6.32 7 7 C7.7425 7.268125 8.485 7.53625 9.25 7.8125 C11.90340523 8.95828862 13.73676598 10.23184842 16 12 C17.2065625 12.6496875 17.2065625 12.6496875 18.4375 13.3125 C24.41941824 17.25181201 27.50323248 23.35127971 30.6875 29.5625 C31.07744141 30.30435547 31.46738281 31.04621094 31.86914062 31.81054688 C36.61704432 40.92489876 39.25351648 49.60582435 39 60 C39.20625 60.70125 39.4125 61.4025 39.625 62.125 C40.13034477 64.65172384 39.30563197 65.84954734 38 68 C36.35 68 34.7 68 33 68 C33 71.63 33 75.26 33 79 C32.46375 78.4225 31.9275 77.845 31.375 77.25 C27.69641954 73.76502904 24.80051868 71.13337175 19.625 70.75 C18.75875 70.8325 17.8925 70.915 17 71 C17.66 68.36 18.32 65.72 19 63 C19.66 63 20.32 63 21 63 C21 61.35 21 59.7 21 58 C19.02 57.34 17.04 56.68 15 56 C15 53.69 15 51.38 15 49 C14.44570312 48.85304688 13.89140625 48.70609375 13.3203125 48.5546875 C11.06592276 47.85670918 9.06361628 47.15069961 7 46 C5.75 42.9375 5.75 42.9375 5 40 C4.319375 39.690625 3.63875 39.38125 2.9375 39.0625 C1.9784375 38.5365625 1.9784375 38.5365625 1 38 C0.3125 34.5625 0.3125 34.5625 0 31 C-0.33 30.01 -0.66 29.02 -1 28 C-1.66 27.67 -2.32 27.34 -3 27 C-3.83956724 23.66557525 -4.07978326 20.22789737 -4.4375 16.8125 C-4.56576172 15.86568359 -4.69402344 14.91886719 -4.82617188 13.94335938 C-5.55439698 7.03245488 -5.55439698 7.03245488 -3.91845703 3.98583984 C-2.53515625 2.32421875 -2.53515625 2.32421875 0 0 Z " fill="#FEFEFE" transform="translate(141,349)"/>
<path d="M0 0 C3.38215167 1.094978 6.6889231 1.98432703 10.1875 2.625 C10.5175 5.265 10.8475 7.905 11.1875 10.625 C12.79625 10.3465625 12.79625 10.3465625 14.4375 10.0625 C17.59141546 9.6945432 19.28568492 9.58034657 22.1875 10.625 C21.9090625 11.5840625 21.9090625 11.5840625 21.625 12.5625 C21.480625 13.243125 21.33625 13.92375 21.1875 14.625 C21.5175 14.955 21.8475 15.285 22.1875 15.625 C22.22842937 17.95797433 22.22991723 20.29205225 22.1875 22.625 C21.1975 22.625 20.2075 22.625 19.1875 22.625 C18.878125 23.57375 18.56875 24.5225 18.25 25.5 C17.1875 28.625 17.1875 28.625 16.1875 30.625 C15.91574182 33.21748672 15.74177432 35.80948511 15.56640625 38.41015625 C15.37884766 39.50650391 15.37884766 39.50650391 15.1875 40.625 C14.1975 41.12 14.1975 41.12 13.1875 41.625 C12.89875 42.615 12.61 43.605 12.3125 44.625 C11.94125 45.615 11.57 46.605 11.1875 47.625 C10.57003906 47.76808594 9.95257813 47.91117187 9.31640625 48.05859375 C6.40482457 48.83323475 5.67966714 50.23924481 4 52.6875 C3.08020628 54.01246868 2.1472108 55.32865218 1.1875 56.625 C0.8575 56.625 0.5275 56.625 0.1875 56.625 C-0.77455088 50.25141289 -0.91905578 44.06570471 -0.8125 37.625 C-1.781875 37.645625 -2.75125 37.66625 -3.75 37.6875 C-6.8125 37.625 -6.8125 37.625 -7.8125 36.625 C-7.83326012 34.9374991 -7.80336458 33.24928466 -7.75 31.5625 C-7.6996894 23.77441955 -9.18237869 18.14889971 -13.203125 11.484375 C-13.8125 9.625 -13.8125 9.625 -13.078125 7.58984375 C-6.76502048 -2.21105617 -6.76502048 -2.21105617 0 0 Z " fill="#FEFEFE" transform="translate(58.8125,321.375)"/>
<path d="M0 0 C2.8992226 0.46761655 3.86675182 0.86675182 6 3 C7.68761858 3.60311615 9.40014476 4.13850237 11.125 4.625 C12.49011719 5.01558594 12.49011719 5.01558594 13.8828125 5.4140625 C14.58148438 5.60742188 15.28015625 5.80078125 16 6 C16 6.66 16 7.32 16 8 C19.72614153 6.88145414 19.72614153 6.88145414 22 4 C22.8971875 4.4640625 22.8971875 4.4640625 23.8125 4.9375 C26.08956772 6.10209704 26.08956772 6.10209704 29 7 C31.19038423 5.62831762 31.19038423 5.62831762 33 4 C37.71974522 6.29936306 37.71974522 6.29936306 38.875 9.1875 C38.9865931 11.69834464 38.745041 13.61295203 38.3125 16.0625 C37.57650034 19.96377713 37.57650034 19.96377713 39.75 22.4375 C41.99977453 24.15624984 41.99977453 24.15624984 45 25 C46.09644404 30.94457613 46.41029848 34.67993436 43 40 C41.02 40 39.04 40 37 40 C37 43.3 37 46.6 37 50 C35 51 35 51 32.94140625 50.36328125 C25.5415399 47.09470317 25.5415399 47.09470317 23 43 C21.515 42.505 21.515 42.505 20 42 C20 41.34 20 40.68 20 40 C20.99 40 21.98 40 23 40 C23.66 38.68 24.32 37.36 25 36 C24.01 35.34 23.02 34.68 22 34 C20.4971537 31.61312647 19.93245456 29.66227282 19.375 26.875 C18.14586906 22.2382784 15.03401076 19.01175839 11.97265625 15.4296875 C10.04525485 13.05573964 8.55743751 10.62465095 7 8 C4.44287212 5.25108753 2.1266986 3.08446574 -1 1 C-0.67 0.67 -0.34 0.34 0 0 Z " fill="#FEFEFE" transform="translate(71,432)"/>
<path d="M0 0 C0.99 0.33 1.98 0.66 3 1 C3 1.66 3 2.32 3 3 C3.721875 2.81179688 4.44375 2.62359375 5.1875 2.4296875 C9.82414014 1.72131192 13.75167516 3.16421725 18 5 C20.75 7.4375 20.75 7.4375 23 10 C24.093125 10.639375 25.18625 11.27875 26.3125 11.9375 C27.199375 12.618125 28.08625 13.29875 29 14 C29.40140295 18.32280105 28.67800113 22.12655984 27.625 26.3125 C27.24214844 27.88451172 27.24214844 27.88451172 26.8515625 29.48828125 C26 32 26 32 24 33 C23.2575 32.69578125 22.515 32.3915625 21.75 32.078125 C18.6454609 30.86100456 16.32307785 30.73304552 13 30.75 C11.989375 30.74484375 10.97875 30.7396875 9.9375 30.734375 C6.9131309 31.00785518 4.77454694 31.81953949 2 33 C-1.3125 33.125 -1.3125 33.125 -4 33 C-7.96618628 26.21910088 -9.15458735 22.8255365 -8 15 C-7.236875 14.95875 -6.47375 14.9175 -5.6875 14.875 C-2.77460018 14.22262939 -2.77460018 14.22262939 -1.1875 11.4375 C0.24189271 7.29978427 0.2249673 4.34936775 0 0 Z " fill="#FEFEFE" transform="translate(118,458)"/>
<path d="M0 0 C4.875 3.75 4.875 3.75 6 6 C6.5964336 12.0836227 5.22889075 15.05576103 2 20 C8.42369466 15.00379305 10.85440621 10.96934836 13 3 C14 2 14 2 16.375 1.8125 C19 2 19 2 22 4 C22.1875 6.625 22.1875 6.625 22 9 C22.66 9.33 23.32 9.66 24 10 C23.67 10.99 23.34 11.98 23 13 C23 13.99 23 14.98 23 16 C24.98491642 15.73323796 24.98491642 15.73323796 27 15 C27.33 14.01 27.66 13.02 28 12 C29.32 12 30.64 12 32 12 C32.17015625 12.71027344 32.3403125 13.42054688 32.515625 14.15234375 C32.75796875 15.07144531 33.0003125 15.99054688 33.25 16.9375 C33.59804688 18.31228516 33.59804688 18.31228516 33.953125 19.71484375 C34.29859375 20.46894531 34.6440625 21.22304688 35 22 C36.88004327 22.68904278 36.88004327 22.68904278 39 23 C41.25 24.24609375 41.25 24.24609375 43 26 C43.3125 28.41015625 43.3125 28.41015625 43 31.0625 C42.9175 31.94035156 42.835 32.81820312 42.75 33.72265625 C42 36 42 36 39.9375 37.30859375 C38.9784375 37.65083984 38.9784375 37.65083984 38 38 C38.26676204 39.98491642 38.26676204 39.98491642 39 42 C39.99 42.33 40.98 42.66 42 43 C41.67 44.32 41.34 45.64 41 47 C44.465 46.505 44.465 46.505 48 46 C48 45.34 48 44.68 48 44 C49.375 42.375 49.375 42.375 51 41 C51.66 41 52.32 41 53 41 C53.33 39.68 53.66 38.36 54 37 C54.66 37 55.32 37 56 37 C55.814375 37.721875 55.62875 38.44375 55.4375 39.1875 C54.98004693 42.12826973 55.26483643 44.14103058 56 47 C56.66 47 57.32 47 58 47 C58 47.66 58 48.32 58 49 C58.81984375 49.17015625 59.6396875 49.3403125 60.484375 49.515625 C61.56203125 49.75796875 62.6396875 50.0003125 63.75 50.25 C64.81734375 50.48203125 65.8846875 50.7140625 66.984375 50.953125 C70.26814405 52.09308628 71.77074995 53.38117228 74 56 C69.87765597 55.52434492 66.65066361 54.95571265 63 53 C62.01 53 61.02 53 60 53 C60 54.65 60 56.3 60 58 C56.457201 59.180933 53.71640139 59.27028374 50 59 C48 56 48 56 48 52 C50.64 52 53.28 52 56 52 C55.01 49.36 54.02 46.72 53 44 C52.278125 44.61875 51.55625 45.2375 50.8125 45.875 C46.91917936 48.81662004 44.61423783 50.18274391 39.6875 49.625 C38.800625 49.41875 37.91375 49.2125 37 49 C37 47.68 37 46.36 37 45 C36.62875 43.845 36.2575 42.69 35.875 41.5 C35 38 35 38 35.6875 35.625 C37 34 37 34 40 33 C40.67012422 30.2140814 40.67012422 30.2140814 40 27 C37.59794368 24.82827785 35.00381571 23.21238345 32 22 C31.01 22.495 31.01 22.495 30 23 C27.06432586 22.11318177 24.4936706 20.77892425 22 19 C20.5625 15.9375 20.5625 15.9375 20 13 C19.505 11.515 19.505 11.515 19 10 C19.4375 7.8125 19.4375 7.8125 20 6 C17.525 5.01 17.525 5.01 15 4 C14.731875 5.03125 14.46375 6.0625 14.1875 7.125 C12.23513257 13.80344307 9.79523084 18.09708943 4 22 C1.625 21.8125 1.625 21.8125 0 21 C0.60698743 16.87248551 2.03810791 13.6678852 4 10 C3.01 9.67 2.02 9.34 1 9 C1 8.34 1 7.68 1 7 C1.99 7 2.98 7 4 7 C4 6.34 4 5.68 4 5 C3.34 5 2.68 5 2 5 C2 4.34 2 3.68 2 3 C1.34 3 0.68 3 0 3 C-0.23783203 4.30324219 -0.23783203 4.30324219 -0.48046875 5.6328125 C-1.88044118 12.54759348 -2.93593805 17.05651096 -8 22 C-8.90616349 23.09570485 -9.80213714 24.19992012 -10.6875 25.3125 C-13 28 -13 28 -15 29 C-15.268125 29.61875 -15.53625 30.2375 -15.8125 30.875 C-17.67175359 34.20208538 -20.68618166 35.34309083 -24 37 C-22.8006207 33.58638198 -21.66702528 31.43511004 -19 29 C-18.67 28.34 -18.34 27.68 -18 27 C-17.071875 26.608125 -16.14375 26.21625 -15.1875 25.8125 C-11.98922917 23.99387541 -11.42581533 23.43279534 -9.8125 20.375 C-8 17 -8 17 -5 16 C-5.061875 14.783125 -5.12375 13.56625 -5.1875 12.3125 C-5.19444004 8.38443999 -4.3783742 6.20165757 -2 3 C-1.34 2.01 -0.68 1.02 0 0 Z " fill="#E4E4E4" transform="translate(736,297)"/>
<path d="M0 0 C0.66 0 1.32 0 2 0 C3.70713426 2.61091122 4.05707199 3.67897007 3.5 6.8125 C2.88966461 10.70338811 3.74530181 13.30971122 5 17 C6.98 17.33 8.96 17.66 11 18 C11 18.66 11 19.32 11 20 C11.66 20.33 12.32 20.66 13 21 C12.01 21 11.02 21 10 21 C10.2475 22.175625 10.495 23.35125 10.75 24.5625 C11.41258739 29.51865367 9.77327701 31.96614253 7 36 C5.35 36 3.7 36 2 36 C1.52860643 41.2062801 1.22915001 45.6227611 4.1875 50.125 C6.03334781 52.3348178 6.62992555 52.91673325 9.5 53.5625 C12.01684823 53.08246486 12.01684823 53.08246486 14.28515625 51.98046875 C20.74505151 49.64747061 28.7644657 50.22865142 35 53 C35.66 50.36 36.32 47.72 37 45 C37.99 45.495 37.99 45.495 39 46 C37.35399693 55.06269926 37.35399693 55.06269926 34 59 C33.04352946 61.48150969 32.89100037 62.65794592 33.70703125 65.21875 C34.07183594 65.9715625 34.43664062 66.724375 34.8125 67.5 C35.16957031 68.2528125 35.52664062 69.005625 35.89453125 69.78125 C37.44392298 72.89229664 37.44392298 72.89229664 39 76 C36.95880212 74.38405168 34.95927063 72.7143618 33 71 C33 70.34 33 69.68 33 69 C30.69 68.34 28.38 67.68 26 67 C25.505 68.98 25.505 68.98 25 71 C24.67 69.35 24.34 67.7 24 66 C22.948125 65.79375 21.89625 65.5875 20.8125 65.375 C16.33797456 64.13659599 14.76459264 61.60932929 12 58 C10.515 57.505 10.515 57.505 9 57 C9 56.34 9 55.68 9 55 C6.525 55.495 6.525 55.495 4 56 C4 54.35 4 52.7 4 51 C3.01 50.67 2.02 50.34 1 50 C-1.98570371 48.58117386 -4.86500472 46.98720324 -7.75 45.375 C-8.94882813 44.70597656 -8.94882813 44.70597656 -10.171875 44.0234375 C-10.77515625 43.68570313 -11.3784375 43.34796875 -12 43 C-11.67 42.34 -11.34 41.68 -11 41 C-10.04287109 41.433125 -10.04287109 41.433125 -9.06640625 41.875 C-8.24011719 42.24625 -7.41382812 42.6175 -6.5625 43 C-5.73878906 43.37125 -4.91507812 43.7425 -4.06640625 44.125 C-2.22053008 45.06498732 -2.22053008 45.06498732 -1 45 C-0.67 41.7 -0.34 38.4 0 35 C1.98 35 3.96 35 6 35 C7.46670113 29.77487721 8.22577402 25.4185766 8 20 C7.13375 19.9071875 7.13375 19.9071875 6.25 19.8125 C2.80912773 18.56996279 1.76741167 17.20752489 0 14 C0.0084329 11.39423273 0.30689294 8.97088514 0.73828125 6.40234375 C1.0049034 3.95499114 0.74644679 2.32526231 0 0 Z " fill="#E4E4E4" transform="translate(108,437)"/>
<path d="M0 0 C2.97 0.495 2.97 0.495 6 1 C6.33 6.28 6.66 11.56 7 17 C5.68 17 4.36 17 3 17 C3 17.66 3 18.32 3 19 C2.34 19 1.68 19 1 19 C1.33 20.65 1.66 22.3 2 24 C0.48046875 22.82421875 0.48046875 22.82421875 -1 21 C-1.07421875 18.51953125 -1.07421875 18.51953125 -0.6875 15.8125 C-0.56761719 14.91144531 -0.44773437 14.01039063 -0.32421875 13.08203125 C-0.21722656 12.39496094 -0.11023437 11.70789063 0 11 C-0.67482422 11.75216797 -0.67482422 11.75216797 -1.36328125 12.51953125 C-1.90339844 13.00808594 -2.44351563 13.49664062 -3 14 C-5.1875 13.6875 -5.1875 13.6875 -7 13 C-7 13.66 -7 14.32 -7 15 C-7.66 15 -8.32 15 -9 15 C-9 11.04 -9 7.08 -9 3 C-3.375 1.875 -3.375 1.875 0 4 C0 2.68 0 1.36 0 0 Z " fill="#E2E2E2" transform="translate(51,360)"/>
<path d="M0 0 C-0.2165625 1.03060547 -0.2165625 1.03060547 -0.4375 2.08203125 C-0.623125 2.98308594 -0.80875 3.88414062 -1 4.8125 C-1.185625 5.70582031 -1.37125 6.59914063 -1.5625 7.51953125 C-2.08684843 10.07260693 -2.08684843 10.07260693 -2 13 C-10.24163574 10.34653567 -16.01668442 8.26140271 -21 1 C-14.46820479 -1.82456009 -6.82065085 -2.00136469 0 0 Z " fill="#FEFEFE" transform="translate(141,491)"/>
<path d="M0 0 C2.5625 0.1875 2.5625 0.1875 4.5625 2.1875 C4.706875 2.8475 4.85125 3.5075 5 4.1875 C5.43708708 6.57390738 5.43708708 6.57390738 8.5625 8.1875 C8.5625 8.8475 8.5625 9.5075 8.5625 10.1875 C7.9025 10.1875 7.2425 10.1875 6.5625 10.1875 C6.315 10.765 6.0675 11.3425 5.8125 11.9375 C4.5625 14.1875 4.5625 14.1875 2.3125 15.875 C0.29496318 18.00640723 0.29496318 18.00640723 0.75 20.44140625 C1.26518471 22.72753838 1.85604512 24.95357512 2.5625 27.1875 C1.18160767 25.56001976 -0.13963607 23.88193347 -1.4375 22.1875 C-2.22125 21.218125 -3.005 20.24875 -3.8125 19.25 C-6.93116286 13.80144115 -4.77768534 6.96656511 -3.4375 1.1875 C-2.4375 0.1875 -2.4375 0.1875 0 0 Z " fill="#E3E3E3" transform="translate(45.4375,310.8125)"/>
<path d="M0 0 C0.969375 0.185625 1.93875 0.37125 2.9375 0.5625 C3.948125 0.706875 4.95875 0.85125 6 1 C6.33 0.67 6.66 0.34 7 0 C8.52519276 0.08937803 10.04681929 0.24537146 11.5625 0.4375 C12.38878906 0.53933594 13.21507812 0.64117187 14.06640625 0.74609375 C14.70449219 0.82988281 15.34257813 0.91367187 16 1 C16 3.33333333 16 5.66666667 16 8 C14.43979133 8.65134925 12.87671421 9.29582964 11.3125 9.9375 C10.44238281 10.29714844 9.57226562 10.65679687 8.67578125 11.02734375 C6.11820735 11.9570312 3.6778677 12.54162625 1 13 C1.33 10.69 1.66 8.38 2 6 C0.8553125 6.495 0.8553125 6.495 -0.3125 7 C-3 8 -3 8 -6 8 C-5.67 6.35 -5.34 4.7 -5 3 C-3.35 2.67 -1.7 2.34 0 2 C0 1.34 0 0.68 0 0 Z " fill="#E3E3E3" transform="translate(746,284)"/>
<path d="M0 0 C1.375 3.0625 1.375 3.0625 2 7 C0.37547313 9.73215882 -1.6795165 11.84339245 -4 14 C-6.4375 13.375 -6.4375 13.375 -9 12 C-9.6875 8.9375 -9.6875 8.9375 -10 6 C-10.66 5.67 -11.32 5.34 -12 5 C-12 3.68 -12 2.36 -12 1 C-7.58774263 -0.47075246 -4.51718381 -1.36884358 0 0 Z " fill="#E3E3E3" transform="translate(32,322)"/>
<path d="M0 0 C1.26376341 3.79129022 0.63656809 4.41513656 -1 8 C-1.43892578 9.11568359 -1.43892578 9.11568359 -1.88671875 10.25390625 C-2.21285156 11.05699219 -2.53898438 11.86007812 -2.875 12.6875 C-3.18179688 13.45449219 -3.48859375 14.22148437 -3.8046875 15.01171875 C-5.24393294 17.40575774 -6.54541406 17.79502145 -9 19 C-9.70491267 21.32206525 -10.37212429 23.65593068 -11 26 C-14.69405432 28.46270288 -16.63277072 28.22985417 -21 28 C-23.4375 27.5 -23.4375 27.5 -25 27 C-24.34 25.35 -23.68 23.7 -23 22 C-22.34 22.33 -21.68 22.66 -21 23 C-21 23.99 -21 24.98 -21 26 C-17.04 25.505 -17.04 25.505 -13 25 C-12.80664062 24.43410156 -12.61328125 23.86820312 -12.4140625 23.28515625 C-12.15367187 22.55167969 -11.89328125 21.81820313 -11.625 21.0625 C-11.36976563 20.33160156 -11.11453125 19.60070312 -10.8515625 18.84765625 C-10 17 -10 17 -8 16 C-7.67 15.01 -7.34 14.02 -7 13 C-6.34 13 -5.68 13 -5 13 C-5 12.01 -5 11.02 -5 10 C-5.66 10 -6.32 10 -7 10 C-6.84518205 7.29068581 -6.51827919 5.53415961 -4.59765625 3.5546875 C-3.10228292 2.32320358 -1.5537076 1.1570163 0 0 Z " fill="#E5E5E5" transform="translate(711,334)"/>
<path d="M0 0 C1.45903258 0.30921884 2.91720722 0.62248799 4.375 0.9375 C5.18710938 1.11152344 5.99921875 1.28554688 6.8359375 1.46484375 C9 2 9 2 11 3 C11 3.99 11 4.98 11 6 C11.86625 6.0825 12.7325 6.165 13.625 6.25 C17.52931674 7.11762594 19.75291273 8.69997985 23 11 C24.051875 11.495 25.10375 11.99 26.1875 12.5 C30.37413193 14.73287037 31.57664604 16.84134704 33.1875 21.25 C33.455625 22.1575 33.72375 23.065 34 24 C35.32 23.34 36.64 22.68 38 22 C38.66 22.66 39.32 23.32 40 24 C39.01 24.33 38.02 24.66 37 25 C37 25.66 37 26.32 37 27 C34.83125748 26.49396008 33.00032373 26.00016187 31 25 C30.65239293 23.61249279 30.34663367 22.21438266 30.0625 20.8125 C28.67689755 16.35877782 26.88756454 14.88263145 22.8125 12.6875 C20.88773099 11.76463062 18.9503826 10.867428 17 10 C9.2949217 6.30457909 9.2949217 6.30457909 7.44921875 4.3984375 C6.01173373 2.71157739 6.01173373 2.71157739 3.3125 2.8125 C2.549375 2.874375 1.78625 2.93625 1 3 C0.67 2.01 0.34 1.02 0 0 Z " fill="#E4E4E4" transform="translate(147,513)"/>
<path d="M0 0 C0.99 0.33 1.98 0.66 3 1 C3.47038241 2.64633842 3.9312801 4.29627888 4.33203125 5.9609375 C5.33252488 9.01507595 7.07023072 11.47027681 8.87890625 14.10546875 C10.05719627 16.09665572 10.48164475 17.75811354 11 20 C11.62010327 21.42811662 12.26763099 22.84453899 12.9375 24.25 C15.5300591 29.98191249 17.39920841 35.61266552 17 42 C14.36 42.66 11.72 43.32 9 44 C9 43.34 9 42.68 9 42 C11.97 41.505 11.97 41.505 15 41 C14.13774036 34.82803623 13.09068937 29.4423622 10.0703125 23.9609375 C8.91857869 21.85082665 7.95589161 19.70532475 7 17.5 C5.70140041 14.52297327 4.31235697 11.63059173 2.8125 8.75 C1.33630442 5.85549886 0.40710988 3.25687907 0 0 Z " fill="#E3E3E3" transform="translate(199,494)"/>
<path d="M0 0 C1.32 0.33 2.64 0.66 4 1 C4 2.32 4 3.64 4 5 C4.66 5 5.32 5 6 5 C6 6.65 6 8.3 6 10 C5.01 10.33 4.02 10.66 3 11 C2.30062468 12.31647119 1.63270867 13.65022151 1 15 C0.01 15.495 0.01 15.495 -1 16 C-2.49697302 10.31150252 -1.3348044 5.58190932 0 0 Z " fill="#FDFDFD" transform="translate(44,313)"/>
<path d="M0 0 C2.64 0.33 5.28 0.66 8 1 C8 3.33333333 8 5.66666667 8 8 C6.43979133 8.65134925 4.87671421 9.29582964 3.3125 9.9375 C2.44238281 10.29714844 1.57226562 10.65679687 0.67578125 11.02734375 C-1.88179265 11.9570312 -4.3221323 12.54162625 -7 13 C-6.4375 10.625 -6.4375 10.625 -5 8 C-2.67793475 7.29508733 -0.34406932 6.62787571 2 6 C3.49743888 4.01432266 3.49743888 4.01432266 4 2 C2.35 2 0.7 2 -1 2 C-0.67 1.34 -0.34 0.68 0 0 Z " fill="#E2E2E2" transform="translate(754,284)"/>
<path d="M0 0 C2.97 0.495 2.97 0.495 6 1 C6.33 6.28 6.66 11.56 7 17 C5.68 17 4.36 17 3 17 C2.01 11.39 1.02 5.78 0 0 Z " fill="#FDFDFD" transform="translate(51,360)"/>
<path d="M0 0 C3 1 3 1 4.1875 2.875 C5 5 5 5 5 8 C4.34 8 3.68 8 3 8 C2.34 7.01 1.68 6.02 1 5 C0.67 5.33 0.34 5.66 0 6 C-2.51217358 6.13579317 -4.62844462 6.10133329 -7.0625 5.4375 C-9.39713461 4.91032444 -10.77431349 5.15577408 -13 6 C-13.33 6.66 -13.66 7.32 -14 8 C-14.66 8 -15.32 8 -16 8 C-15.25 5.5625 -15.25 5.5625 -14 3 C-10.67926492 1.33963246 -7.51697109 2.25170828 -4 3 C-3.01 3.33 -2.02 3.66 -1 4 C-0.67 2.68 -0.34 1.36 0 0 Z " fill="#E3E3E3" transform="translate(203,528)"/>
<path d="M0 0 C1.98 0.66 3.96 1.32 6 2 C6.04241723 4.33294775 6.04092937 6.66702567 6 9 C5 10 5 10 2.4375 10.0625 C1.633125 10.041875 0.82875 10.02125 0 10 C-1.125 6.6875 -1.125 6.6875 -2 3 C-1.34 2.01 -0.68 1.02 0 0 Z " fill="#ECECEC" transform="translate(104,456)"/>
<path d="M0 0 C3.13498176 1.08102819 3.9868559 1.97840612 5.75 4.875 C7 8 7 8 7 12 C8.65 11.67 10.3 11.34 12 11 C12.226875 11.721875 12.45375 12.44375 12.6875 13.1875 C14.76903697 17.64793636 17.95315756 20.30210504 22 23 C20.68 23.33 19.36 23.66 18 24 C16.82750647 22.54634731 15.66216184 21.08692581 14.5 19.625 C13.8503125 18.81289063 13.200625 18.00078125 12.53125 17.1640625 C11 15 11 15 11 13 C9.02 13 7.04 13 5 13 C4.89042969 12.37351562 4.78085937 11.74703125 4.66796875 11.1015625 C4.43013672 9.87566406 4.43013672 9.87566406 4.1875 8.625 C3.96126953 7.40683594 3.96126953 7.40683594 3.73046875 6.1640625 C3.12455058 3.64179359 3.12455058 3.64179359 0 2 C0 1.34 0 0.68 0 0 Z " fill="#E5E5E5" transform="translate(629,402)"/>
<path d="M0 0 C0.99 0.33 1.98 0.66 3 1 C3.33 3.31 3.66 5.62 4 8 C2.125 8.625 2.125 8.625 0 9 C-0.66 8.34 -1.32 7.68 -2 7 C-1.43181818 1.43181818 -1.43181818 1.43181818 0 0 Z " fill="#E5E5E5" transform="translate(209,471)"/>
<path d="M0 0 C0.33 1.65 0.66 3.3 1 5 C0.01 4.67 -0.98 4.34 -2 4 C-2 3.34 -2 2.68 -2 2 C-3.423125 2.2784375 -3.423125 2.2784375 -4.875 2.5625 C-8 3 -8 3 -10 2 C-9.67 2.99 -9.34 3.98 -9 5 C-9.99 5 -10.98 5 -12 5 C-12 3.68 -12 2.36 -12 1 C-7.58774263 -0.47075246 -4.51718381 -1.36884358 0 0 Z " fill="#E2E2E2" transform="translate(32,322)"/>
<path d="M0 0 C2 2 2 2 2.125 5.125 C2.08375 6.07375 2.0425 7.0225 2 8 C0.35 8 -1.3 8 -3 8 C-3.33 8.66 -3.66 9.32 -4 10 C-4 5.68612153 -3.08852974 3.08852974 0 0 Z " fill="#E4E4E4" transform="translate(673,366)"/>
<path d="M0 0 C0.763125 0.0825 1.52625 0.165 2.3125 0.25 C1.625 2.6875 1.625 2.6875 0.3125 5.25 C-2.3125 6.0625 -2.3125 6.0625 -4.6875 6.25 C-5.0175 5.59 -5.3475 4.93 -5.6875 4.25 C-3.34903846 0.31153846 -3.34903846 0.31153846 0 0 Z " fill="#FDFDFD" transform="translate(755.6875,285.75)"/>
<path d="M0 0 C0.33 0 0.66 0 1 0 C2.34382872 6.23047859 2.34382872 6.23047859 0.6875 9.9375 C-0.1478125 10.9584375 -0.1478125 10.9584375 -1 12 C-1.66 12 -2.32 12 -3 12 C-3.33 11.01 -3.66 10.02 -4 9 C-3.34 9 -2.68 9 -2 9 C-1.7834375 7.0509375 -1.7834375 7.0509375 -1.5625 5.0625 C-1.125 1.125 -1.125 1.125 0 0 Z " fill="#EEEEEE" transform="translate(176,419)"/>
<path d="M0 0 C0.66 0.33 1.32 0.66 2 1 C1.51789062 1.61488281 1.03578125 2.22976563 0.5390625 2.86328125 C-0.09257813 3.67152344 -0.72421875 4.47976563 -1.375 5.3125 C-2.31472656 6.51326172 -2.31472656 6.51326172 -3.2734375 7.73828125 C-4.57756718 9.44663212 -5.80781817 11.21172726 -7 13 C-7.66 12.67 -8.32 12.34 -9 12 C-6.97567202 7.41862615 -4.67937732 4.38890016 -1 1 C-0.67 0.67 -0.34 0.34 0 0 Z " fill="#E4E4E4" transform="translate(588,448)"/>
<path d="M0 0 C0.33 0 0.66 0 1 0 C1.74304413 4.75548243 -0.26756947 7.56068738 -2.7109375 11.42578125 C-3.13632812 11.94527344 -3.56171875 12.46476562 -4 13 C-4.66 13 -5.32 13 -6 13 C-5.731875 12.505 -5.46375 12.01 -5.1875 11.5 C-3.82334212 8.62808867 -2.75474049 5.69847215 -1.68359375 2.70703125 C-1 1 -1 1 0 0 Z " fill="#E3E3E3" transform="translate(657,411)"/>
<path d="M0 0 C2.64 0 5.28 0 8 0 C8.33 0.99 8.66 1.98 9 3 C7.02 3.66 5.04 4.32 3 5 C3 4.01 3 3.02 3 2 C2.01 2 1.02 2 0 2 C0 1.34 0 0.68 0 0 Z " fill="#FDFDFD" transform="translate(22,324)"/>
<path d="M0 0 C0.33 0.99 0.66 1.98 1 3 C0.01 4.485 0.01 4.485 -1 6 C-1.99 5.67 -2.98 5.34 -4 5 C-4 3.68 -4 2.36 -4 1 C-2 0 -2 0 0 0 Z " fill="#E5E5E5" transform="translate(108,467)"/>
<path d="M0 0 C0.99 0.33 1.98 0.66 3 1 C3 1.66 3 2.32 3 3 C3.66 3 4.32 3 5 3 C5 2.34 5 1.68 5 1 C5.66 1 6.32 1 7 1 C6.67 2.32 6.34 3.64 6 5 C4.35 5 2.7 5 1 5 C0.67 3.35 0.34 1.7 0 0 Z " fill="#E2E2E2" transform="translate(103,461)"/>
<path d="M0 0 C0.66 0.33 1.32 0.66 2 1 C2 2.65 2 4.3 2 6 C1.01 6.33 0.02 6.66 -1 7 C-1.33 5.02 -1.66 3.04 -2 1 C-1.34 0.67 -0.68 0.34 0 0 Z " fill="#FDFDFD" transform="translate(46,364)"/>
<path d="M0 0 C4.35535069 1.16142685 6.64619703 2.07699505 9 6 C8.01 6 7.02 6 6 6 C6 5.34 6 4.68 6 4 C3.03 3.505 3.03 3.505 0 3 C0 2.01 0 1.02 0 0 Z " fill="#FDFDFD" transform="translate(774,410)"/>
<path d="M0 0 C0 0.99 0 1.98 0 3 C-0.598125 3.144375 -1.19625 3.28875 -1.8125 3.4375 C-3.56150404 3.8872439 -5.28677023 4.42892341 -7 5 C-6.625 3.0625 -6.625 3.0625 -6 1 C-4 0 -4 0 0 0 Z " fill="#E3E3E3" transform="translate(823,398)"/>
<path d="M0 0 C2.31 0.33 4.62 0.66 7 1 C6.67 1.99 6.34 2.98 6 4 C4.35 4 2.7 4 1 4 C0.67 2.68 0.34 1.36 0 0 Z " fill="#E2E2E2" transform="translate(800,390)"/>
<path d="M0 0 C2.475 0.99 2.475 0.99 5 2 C5 2.99 5 3.98 5 5 C3.125 4.6875 3.125 4.6875 1 4 C0.34 3.01 -0.32 2.02 -1 1 C-0.67 0.67 -0.34 0.34 0 0 Z " fill="#E6E6E6" transform="translate(147,342)"/>
<path d="M0 0 C1.98 0.495 1.98 0.495 4 1 C3.67 2.32 3.34 3.64 3 5 C1.68 4.34 0.36 3.68 -1 3 C-0.67 2.01 -0.34 1.02 0 0 Z " fill="#E2E2E2" transform="translate(758,295)"/>
</svg>
